<?xml version="1.0" encoding="utf-8"?>
<!-- Generator: Adobe Illustrator 16.0.3, SVG Export Plug-In . SVG Version: 6.00 Build 0)  -->
<!DOCTYPE svg PUBLIC "-//W3C//DTD SVG 1.1//EN" "http://www.w3.org/Graphics/SVG/1.1/DTD/svg11.dtd">
<svg version="1.1" xmlns="http://www.w3.org/2000/svg" xmlns:xlink="http://www.w3.org/1999/xlink" x="0px" y="0px" width="100px"
	 height="100px" viewBox="0 0 100 100" enable-background="new 0 0 100 100" xml:space="preserve">
<g id="Layer_2">
	<g>
		<path fill="#FFFFFF" d="M60.819,64.24l2.174-4.578c-4.273-1.489-8.624-2.252-13.051-2.291c-4.121-0.038-8.452,0.726-12.994,2.291
			l2.176,4.578c3.7-1.221,7.308-1.832,10.818-1.832C53.491,62.408,57.117,63.02,60.819,64.24z M38.952,65.271
			c-0.229,1.259-0.649,2.671-1.259,4.236h24.613c-0.572-1.183-0.992-2.596-1.259-4.236H38.952z M47.252,40.313h-5.438v5.15h5.438
			v8.359h5.438v-8.359h5.496v-5.15H52.69v-5.037h-5.438V40.313z"/>
	</g>
</g>
<g id="Layer_1">
	<g>
		<path d="M40.785,74.545h-9.848c2.137-3.74,3.283-7.403,3.435-10.991c-3.663-3.74-6.259-7.279-7.785-10.619
			c-1.525-3.338-1.603-6.897-0.229-10.676c1.031-3.014,2.892-6.01,5.581-8.986c2.69-2.978,7.643-6.907,14.854-11.792
			c-0.534-0.344-1.26-0.916-2.175-1.718c-0.917-0.801-1.374-2.062-1.374-3.777c0-1.832,0.666-3.358,2.003-4.58
			c1.298-1.182,2.862-1.774,4.694-1.774s3.415,0.593,4.751,1.774c1.336,1.222,2.003,2.748,2.003,4.58
			c0,1.716-0.457,2.977-1.372,3.777c-0.916,0.802-1.642,1.374-2.177,1.718c7.175,4.885,12.116,8.814,14.826,11.792
			c2.71,2.977,4.58,5.973,5.61,8.986c1.336,3.778,1.25,7.338-0.258,10.676c-1.508,3.34-4.073,6.879-7.698,10.619
			c0.113,3.588,1.239,7.251,3.377,10.991h-9.788c0.229,0.42,0.38,0.666,0.456,0.743c1.031,1.68,2.138,2.635,3.32,2.862
			c1.184,0.229,2.596,0.344,4.236,0.344h11.965c2.402,0,4.655,0.992,6.755,2.977c2.098,1.984,3.147,4.829,3.147,8.529H65.456
			c-3.932,0-7.499-1.354-10.705-4.064c-3.206-2.709-4.809-5.857-4.809-9.445c0,3.588-1.604,6.736-4.809,9.445
			C41.929,88.646,38.398,90,34.544,90H10.903c0-3.7,1.03-6.545,3.091-8.529s4.331-2.977,6.813-2.977h11.906
			c1.64,0,3.052-0.115,4.235-0.344c1.184-0.228,2.309-1.183,3.378-2.862c0.037-0.114,0.095-0.229,0.172-0.344
			C40.573,74.793,40.67,74.659,40.785,74.545z M60.819,64.24l2.174-4.578c-4.273-1.489-8.624-2.252-13.051-2.291
			c-4.121-0.038-8.452,0.726-12.994,2.291l2.176,4.578c3.7-1.221,7.308-1.832,10.818-1.832C53.491,62.408,57.117,63.02,60.819,64.24
			z M38.952,65.271c-0.229,1.259-0.649,2.671-1.259,4.236h24.613c-0.572-1.183-0.992-2.596-1.259-4.236H38.952z M47.252,40.313
			h-5.438v5.15h5.438v8.359h5.438v-8.359h5.496v-5.15H52.69v-5.037h-5.438V40.313z"/>
	</g>
</g>
</svg>
