<?xml version="1.0" encoding="utf-8"?>
<!-- Generator: Adobe Illustrator 16.0.3, SVG Export Plug-In . SVG Version: 6.00 Build 0)  -->
<!DOCTYPE svg PUBLIC "-//W3C//DTD SVG 1.1//EN" "http://www.w3.org/Graphics/SVG/1.1/DTD/svg11.dtd">
<svg version="1.1" xmlns="http://www.w3.org/2000/svg" xmlns:xlink="http://www.w3.org/1999/xlink" x="0px" y="0px" width="100px"
	 height="100px" viewBox="0 0 100 100" enable-background="new 0 0 100 100" xml:space="preserve">
<g id="Layer_2">
	<g>
		<path fill="#FFFFFF" d="M47.294,67.544c-0.6-9.816-1.201-15.547-1.801-17.189C40.283,36.731,34.271,30.36,27.46,31.242
			c-8.053,1.042-12.622,5.709-13.704,14.005c-0.682,5.409,4.688,14.385,16.106,26.926C36.557,69.688,42.367,68.144,47.294,67.544z
			 M29.862,73.374l-1.141,11.42h42.914l-1.259-11.602l-6.793,4.449l6.071,3.906H51.682l6.973-4.387l-8.717-6.01l-8.714,6.01
			l7.153,4.387h-17.73l5.889-3.965L29.862,73.374z M44.108,35.689c3.164,4.77,5.13,8.615,5.892,11.539
			c0.801-2.924,2.765-6.77,5.89-11.539c-2.645-3.486-4.608-5.229-5.89-5.229C48.797,30.459,46.834,32.203,44.108,35.689z
			 M50.059,39.294c-0.4-1.162-0.861-2.184-1.38-3.065c0.519-0.961,0.961-1.442,1.321-1.442c0.44,0.041,0.921,0.521,1.443,1.442
			C50.88,37.151,50.42,38.174,50.059,39.294z M52.704,67.544c5.168,0.6,11.061,2.145,17.673,4.629
			c11.379-9.377,16.667-18.352,15.866-26.926c-0.802-8.256-5.37-12.925-13.705-14.005c-7.413-0.963-13.423,5.409-18.03,19.113
			C53.666,52.88,53.065,58.608,52.704,67.544z"/>
	</g>
</g>
<g id="Layer_1">
	<g>
		<path d="M21.149,90.265l3.064-18.271C13.316,62.255,7.866,53.298,7.866,45.125c0-11.339,6.551-17.853,19.654-19.535
			c2.925-0.36,7.313,1.723,13.163,6.251c2.363-3.525,4.688-5.709,6.972-6.55v-7.334h-6.131v-5.108h6.131V8.1h4.688v4.749h6.131
			v5.108h-6.131v7.334c2.203,0.761,4.547,2.964,7.032,6.61c5.448-4.81,9.816-6.911,13.103-6.312
			c13.063,2.325,19.615,8.835,19.655,19.535c0.039,8.334-5.409,17.29-16.349,26.868l3.064,18.271H21.149z M47.294,67.544
			c-0.6-9.816-1.201-15.547-1.801-17.189C40.283,36.731,34.271,30.36,27.46,31.242c-8.053,1.042-12.622,5.709-13.704,14.005
			c-0.682,5.409,4.688,14.385,16.106,26.926C36.557,69.688,42.367,68.144,47.294,67.544z M31.188,66.222
			c3.404-1.723,6.911-2.904,10.518-3.545c-0.081-4.969-0.681-9.037-1.804-12.201c-3.606-10.62-7.714-15.168-12.321-13.645
			c-5.53,1.764-8.313,4.567-8.354,8.416C19.146,50.815,23.132,57.806,31.188,66.222z M29.862,73.374l-1.141,11.42h42.914
			l-1.259-11.602l-6.793,4.449l6.071,3.906H51.682l6.973-4.387l-8.717-6.01l-8.714,6.01l7.153,4.387h-17.73l5.889-3.965
			L29.862,73.374z M44.108,35.689c3.164,4.77,5.13,8.615,5.892,11.539c0.801-2.924,2.765-6.77,5.89-11.539
			c-2.645-3.486-4.608-5.229-5.89-5.229C48.797,30.459,46.834,32.203,44.108,35.689z M50.059,39.294
			c-0.4-1.162-0.861-2.184-1.38-3.065c0.519-0.961,0.961-1.442,1.321-1.442c0.44,0.041,0.921,0.521,1.443,1.442
			C50.88,37.151,50.42,38.174,50.059,39.294z M52.704,67.544c5.168,0.6,11.061,2.145,17.673,4.629
			c11.379-9.377,16.667-18.352,15.866-26.926c-0.802-8.256-5.37-12.925-13.705-14.005c-7.413-0.963-13.423,5.409-18.03,19.113
			C53.666,52.88,53.065,58.608,52.704,67.544z M68.813,66.222c-3.406-1.723-6.911-2.904-10.519-3.545
			c0.08-4.969,0.681-9.037,1.804-12.201c3.607-10.62,7.714-15.168,12.322-13.645c5.527,1.764,8.313,4.567,8.354,8.416
			C80.854,50.815,76.866,57.806,68.813,66.222z"/>
	</g>
</g>
</svg>
