<?xml version="1.0" encoding="utf-8"?>
<!-- Generator: Adobe Illustrator 16.0.3, SVG Export Plug-In . SVG Version: 6.00 Build 0)  -->
<!DOCTYPE svg PUBLIC "-//W3C//DTD SVG 1.1//EN" "http://www.w3.org/Graphics/SVG/1.1/DTD/svg11.dtd">
<svg version="1.1" xmlns="http://www.w3.org/2000/svg" xmlns:xlink="http://www.w3.org/1999/xlink" x="0px" y="0px" width="100px"
	 height="100px" viewBox="0 0 100 100" enable-background="new 0 0 100 100" xml:space="preserve">
<g id="Layer_2">
	<g>
		<path fill="#FFFFFF" d="M20.236,45.408l3.49,3.434l4.236-4.465l-2.346-2.403L20.236,45.408z M49.201,33.616
			c-2.826-4.274-5.822-4.141-8.988,0.399l-2.404,3.492h6.984C49.41,37.508,50.879,36.212,49.201,33.616z M77.938,86.738
			c-3.246-4.123-4.602-9.026-4.064-14.714c0.533-5.685,0.973-11.447,1.316-17.286c0.303-5.839-0.498-11.429-2.404-16.771
			c-1.91-5.305-6.928-9.693-15.057-13.166c6.984,8.776,10.629,14.216,10.936,16.314c0.877,5.609,1.121,11.182,0.742,16.714
			c-0.457,6.03-0.65,11.259-0.572,15.685C68.949,80.574,71.982,84.981,77.938,86.738z"/>
	</g>
</g>
<g id="Layer_1">
	<g>
		<path d="M33.457,29.895c0.152-1.259,1.984-2.977,5.494-5.151c3.514-2.176,7.023-4.465,10.535-6.87l5.494-7.327l4.582,10.361
			c10.797,5.42,17.666,12.061,20.607,19.921c2.936,7.899,3.699,17.497,2.289,28.793c-0.533,4.275-0.459,8.033,0.229,11.277
			c0.686,3.435,1.602,6.449,2.744,9.044L26.131,90c-0.305-5.647,0.305-10.447,1.832-14.397c1.525-3.949,4.445-7.735,8.758-11.362
			c1.145-0.229,2.463-0.838,3.949-1.832c1.68-1.066,2.52-1.62,2.52-1.659c0-0.038,0.992-0.059,2.977-0.059
			c2.021-0.036,4.227-0.505,6.611-1.401c2.383-0.896,4.588-2.433,6.611-4.608c2.1-2.29,3.146-5.971,3.146-11.048
			c0-0.533-0.121-1.066-0.369-1.603c-0.25-0.533-0.41-1.106-0.488-1.717c-1.525,6.182-4.104,10.381-7.729,12.592
			c-3.51,2.139-6.523,3.054-9.041,2.749c-2.406-0.267-5.404,0.153-8.988,1.26c-2.215,0.725-3.895,1.658-5.037,2.805
			c-1.068,1.03-1.795,2.117-2.178,3.263c-0.342,1.03-0.514,1.564-0.514,1.602l-10.303-5.779l5.494-3.951l-2.461-2.347l-5.781,4.064
			l-0.572-14.196L33.457,29.895z M20.236,45.408l3.49,3.434l4.236-4.465l-2.346-2.403L20.236,45.408z M49.201,33.616
			c-2.826-4.274-5.822-4.141-8.988,0.399l-2.404,3.492h6.984C49.41,37.508,50.879,36.212,49.201,33.616z M77.938,86.738
			c-3.246-4.123-4.602-9.026-4.064-14.714c0.533-5.685,0.973-11.447,1.316-17.286c0.303-5.839-0.498-11.429-2.404-16.771
			c-1.91-5.305-6.928-9.693-15.057-13.166c6.984,8.776,10.629,14.216,10.936,16.314c0.877,5.609,1.121,11.182,0.742,16.714
			c-0.457,6.03-0.65,11.259-0.572,15.685C68.949,80.574,71.982,84.981,77.938,86.738z"/>
	</g>
</g>
</svg>
