<?xml version="1.0" encoding="utf-8"?>
<!-- Generator: Adobe Illustrator 16.0.3, SVG Export Plug-In . SVG Version: 6.00 Build 0)  -->
<!DOCTYPE svg PUBLIC "-//W3C//DTD SVG 1.1//EN" "http://www.w3.org/Graphics/SVG/1.1/DTD/svg11.dtd">
<svg version="1.1" xmlns="http://www.w3.org/2000/svg" xmlns:xlink="http://www.w3.org/1999/xlink" x="0px" y="0px" width="100px"
	 height="100px" viewBox="0 0 100 100" enable-background="new 0 0 100 100" xml:space="preserve">
<g id="Layer_2">
</g>
<g id="Layer_1">
	<g>
		<path d="M50.035,90H22.442v-3.549c-0.151-2.557,0.496-4.741,1.947-6.556c1.448-1.811,3.435-3.538,5.952-5.179
			c3.74-2.864,6.487-6.298,8.243-10.305c1.755-4.007,2.996-8.261,3.722-12.764H28.625l13.566-11.393
			c-2.747-2.404-4.121-5.418-4.121-9.045c0-3.243,1.163-6.048,3.491-8.414c2.328-2.328,5.152-3.491,8.474-3.491
			c3.243,0,6.038,1.172,8.386,3.521c2.346,2.346,3.52,5.142,3.52,8.385c0,3.664-1.374,6.68-4.121,9.045l13.509,11.393H57.705
			c0.687,4.503,1.907,8.757,3.663,12.764c1.755,4.007,4.503,7.44,8.242,10.305c2.52,1.641,4.504,3.368,5.953,5.179
			c1.45,1.814,2.119,3.999,2.004,6.556V90H50.035z"/>
	</g>
</g>
</svg>
