<?xml version="1.0" encoding="utf-8"?>
<!-- Generator: Adobe Illustrator 16.0.3, SVG Export Plug-In . SVG Version: 6.00 Build 0)  -->
<!DOCTYPE svg PUBLIC "-//W3C//DTD SVG 1.1//EN" "http://www.w3.org/Graphics/SVG/1.1/DTD/svg11.dtd">
<svg version="1.1" xmlns="http://www.w3.org/2000/svg" xmlns:xlink="http://www.w3.org/1999/xlink" x="0px" y="0px" width="100px"
	 height="100px" viewBox="0 0 100 100" enable-background="new 0 0 100 100" xml:space="preserve">
<g id="Layer_2">
	<g>
		<path fill="#FFFFFF" d="M30.91,73.914l-1.09,10.877h40.873l-1.201-11.049l-6.471,4.236l5.783,3.721H51.688l6.643-4.179
			l-8.301-5.724l-8.301,5.724l6.813,4.179H31.652l5.611-3.776L30.91,73.914z M30.508,67.791l0.402,4.577
			c6.791-2.861,13.164-4.293,19.119-4.293c5.99,0,12.479,1.395,19.463,4.18l0.742-4.008c-6.678-3.281-13.414-4.941-20.205-4.98
			C43.502,63.23,36.996,64.737,30.508,67.791z"/>
	</g>
</g>
<g id="Layer_1">
	<g>
		<path d="M50.029,90H22.207c3.59-7.327,4.486-14.597,2.691-21.81c-1.795-7.175-5.02-14.331-9.672-21.466
			c-0.154,0.076-0.461,0.114-0.918,0.114c-1.717,0-3.176-0.601-4.379-1.802c-1.201-1.203-1.801-2.683-1.801-4.438
			c0-1.718,0.6-3.187,1.801-4.408c1.203-1.221,2.662-1.832,4.379-1.832c1.719,0,3.207,0.611,4.467,1.832
			c1.221,1.222,1.832,2.69,1.832,4.408c0,0.649-0.096,1.241-0.289,1.774c-0.15,0.535-0.398,1.068-0.742,1.603l9.385,6.641
			l4.811-23.126c-2.098-1.03-3.244-2.69-3.436-4.981c-0.152-1.373,0.307-2.805,1.375-4.293c1.066-1.525,2.451-2.384,4.152-2.575
			c1.695-0.191,3.223,0.268,4.578,1.373c1.354,1.107,2.107,2.519,2.26,4.236c0.23,2.214-0.496,4.007-2.174,5.382l9.502,19.634
			l9.387-19.634c-1.68-1.375-2.402-3.168-2.176-5.382c0.191-1.718,0.955-3.129,2.291-4.236c1.297-1.105,2.822-1.564,4.58-1.373
			c1.678,0.191,3.053,1.05,4.119,2.575c1.107,1.488,1.584,2.92,1.434,4.293c-0.268,2.291-1.414,3.951-3.436,4.981l4.809,23.126
			l9.387-6.641c-0.42-0.534-0.688-1.067-0.801-1.603c-0.193-0.726-0.285-1.318-0.285-1.774c0-1.718,0.607-3.187,1.832-4.408
			c1.221-1.221,2.709-1.832,4.463-1.832c1.717,0,3.188,0.611,4.408,1.832c1.219,1.222,1.83,2.69,1.83,4.408
			c0,1.755-0.611,3.234-1.83,4.438c-1.221,1.201-2.691,1.802-4.408,1.802c-0.42,0-0.725-0.038-0.914-0.114
			c-4.656,7.135-7.902,14.291-9.732,21.466c-1.795,7.213-0.879,14.482,2.748,21.81H50.029z M30.91,73.914l-1.09,10.877h40.873
			l-1.201-11.049l-6.471,4.236l5.783,3.721H51.688l6.643-4.179l-8.301-5.724l-8.301,5.724l6.813,4.179H31.652l5.611-3.776
			L30.91,73.914z M30.508,67.791l0.402,4.577c6.791-2.861,13.164-4.293,19.119-4.293c5.99,0,12.479,1.395,19.463,4.18l0.742-4.008
			c-6.678-3.281-13.414-4.941-20.205-4.98C43.502,63.23,36.996,64.737,30.508,67.791z"/>
	</g>
</g>
</svg>
