<?xml version="1.0" encoding="utf-8"?>
<!-- Generator: Adobe Illustrator 16.0.3, SVG Export Plug-In . SVG Version: 6.00 Build 0)  -->
<!DOCTYPE svg PUBLIC "-//W3C//DTD SVG 1.1//EN" "http://www.w3.org/Graphics/SVG/1.1/DTD/svg11.dtd">
<svg version="1.1" xmlns="http://www.w3.org/2000/svg" xmlns:xlink="http://www.w3.org/1999/xlink" x="0px" y="0px" width="100px"
	 height="100px" viewBox="0 0 100 100" enable-background="new 0 0 100 100" xml:space="preserve">
<g id="Layer_2">
	<g>
		<path fill="#FFFFFF" d="M33.256,68.82l-0.344,5.553h34.117l-0.344-5.553H33.256z M64.738,43.461l-0.344-5.552H35.602l-0.342,5.552
			H64.738z"/>
	</g>
</g>
<g id="Layer_1">
	<g>
		<path d="M49.971,90H19.404l1.373-12.593l7.613-5.667l2.348-31.427l-7.1-5.095l-0.801-16.314h13.795v7.041h6.525v-7.041h6.813
			h6.811v7.041h6.582v-7.041h13.74l-0.801,16.314l-7.1,5.095l2.406,31.427l7.555,5.667L80.596,90H49.971z M33.256,68.82
			l-0.344,5.553h34.117l-0.344-5.553H33.256z M64.738,43.461l-0.344-5.552H35.602l-0.342,5.552H64.738z"/>
	</g>
</g>
</svg>
