<?xml version="1.0" encoding="utf-8"?>
<!-- Generator: Adobe Illustrator 16.0.3, SVG Export Plug-In . SVG Version: 6.00 Build 0)  -->
<!DOCTYPE svg PUBLIC "-//W3C//DTD SVG 1.1//EN" "http://www.w3.org/Graphics/SVG/1.1/DTD/svg11.dtd">
<svg version="1.1" xmlns="http://www.w3.org/2000/svg" xmlns:xlink="http://www.w3.org/1999/xlink" x="0px" y="0px" width="100px"
	 height="100px" viewBox="0 0 100 100" enable-background="new 0 0 100 100" xml:space="preserve">
<g id="Layer_2">
	<g>
		<path fill="#FFFFFF" d="M44.734,74.545c-1.146,3.662-2.481,5.839-4.007,6.525c-2.442,1.068-5.324,1.603-8.646,1.603H20.635
			c-1.489,0-2.538,0.421-3.148,1.259l-1.146,1.66h18.776c2.327,0,4.579-0.763,6.755-2.289c2.938-2.099,4.426-5.018,4.465-8.758
			H44.734z M49.942,57.143c5.687,0,9.979,0.496,12.88,1.489c5.267-4.58,7.06-9.406,5.381-14.484
			c-1.908-5.686-7.995-11.905-18.261-18.66C39.678,32.128,33.628,38.329,31.798,44.09c-1.528,4.772,0.305,9.675,5.495,14.714
			C39.926,57.62,44.142,57.066,49.942,57.143z M39.467,69.105h21.181c-0.65-1.718-0.936-3.186-0.859-4.407
			c-1.945-1.067-5.228-1.604-9.846-1.604c-4.084,0-7.402,0.536-9.96,1.604C40.135,65.729,39.963,67.198,39.467,69.105z
			 M49.942,19.019c2.062-0.038,3.092-1.088,3.092-3.148c0-1.755-1.03-2.633-3.092-2.633c-1.984,0-2.976,0.878-2.976,2.633
			C46.967,17.97,47.958,19.019,49.942,19.019z M53.606,74.545c0,3.74,1.47,6.659,4.408,8.758c2.137,1.526,4.408,2.289,6.811,2.289
			h19.006c-0.267-0.61-0.61-1.164-1.03-1.66c-0.726-0.838-1.889-1.259-3.492-1.259H67.86c-3.474,0-6.011-0.534-7.613-1.603
			c-2.977-2.061-4.752-4.236-5.324-6.525H53.606z"/>
	</g>
</g>
<g id="Layer_1">
	<g>
		<path d="M54.58,22.453c8.281,6.488,12.746,10.094,13.395,10.819c2.71,2.977,4.579,5.973,5.609,8.986
			c1.336,3.778,1.25,7.338-0.257,10.676c-1.508,3.34-4.073,6.879-7.7,10.619c0.116,3.588,1.24,7.251,3.379,10.991h-9.789
			c0.344,1.107,1.603,2.31,3.777,3.605c0.381,0.229,1.794,0.344,4.235,0.344h11.965c2.404,0,4.655,0.992,6.755,2.977
			c2.098,1.984,3.147,4.829,3.147,8.529H65.456c-3.931,0-7.498-1.354-10.705-4.064c-3.206-2.709-4.809-5.857-4.809-9.445
			c0,3.588-1.603,6.736-4.809,9.445C41.93,88.646,38.398,90,34.545,90H10.903c0-3.7,1.03-6.545,3.091-8.529s4.331-2.977,6.813-2.977
			h11.906c2.289,0,3.701-0.115,4.236-0.344c1.718-0.763,2.823-1.965,3.32-3.605h-9.331c2.136-3.74,3.282-7.403,3.435-10.991
			c-3.664-3.74-6.26-7.29-7.786-10.648c-1.487-3.204-1.563-6.754-0.229-10.646c0.916-2.671,2.786-5.668,5.611-8.986
			c2.479-2.978,6.963-6.582,13.451-10.819c-2.671-1.335-4.007-3.511-4.007-6.525c0-5.113,2.899-7.728,8.7-7.843
			c5.725-0.152,8.587,2.5,8.587,7.957C58.701,18.79,57.327,20.927,54.58,22.453z M44.734,74.545
			c-1.146,3.662-2.481,5.839-4.007,6.525c-2.442,1.068-5.324,1.603-8.646,1.603H20.635c-1.489,0-2.538,0.421-3.148,1.259
			l-1.146,1.66h18.776c2.327,0,4.579-0.763,6.755-2.289c2.938-2.099,4.426-5.018,4.465-8.758H44.734z M49.942,57.143
			c5.687,0,9.979,0.496,12.88,1.489c5.267-4.58,7.06-9.406,5.381-14.484c-1.908-5.686-7.995-11.905-18.261-18.66
			C39.678,32.128,33.628,38.329,31.798,44.09c-1.528,4.772,0.305,9.675,5.495,14.714C39.926,57.62,44.142,57.066,49.942,57.143z
			 M39.467,69.105h21.181c-0.65-1.718-0.936-3.186-0.859-4.407c-1.945-1.067-5.228-1.604-9.846-1.604
			c-4.084,0-7.402,0.536-9.96,1.604C40.135,65.729,39.963,67.198,39.467,69.105z M46.852,40.313V35.39h6.183v4.924h4.58v5.666h-4.58
			v7.9h-6.183v-7.9h-4.351v-5.666H46.852z M49.942,19.019c2.062-0.038,3.092-1.088,3.092-3.148c0-1.755-1.03-2.633-3.092-2.633
			c-1.984,0-2.976,0.878-2.976,2.633C46.967,17.97,47.958,19.019,49.942,19.019z M53.606,74.545c0,3.74,1.47,6.659,4.408,8.758
			c2.137,1.526,4.408,2.289,6.811,2.289h19.006c-0.267-0.61-0.61-1.164-1.03-1.66c-0.726-0.838-1.889-1.259-3.492-1.259H67.86
			c-3.474,0-6.011-0.534-7.613-1.603c-2.977-2.061-4.752-4.236-5.324-6.525H53.606z"/>
	</g>
</g>
</svg>
