<?xml version="1.0" encoding="utf-8"?>
<!-- Generator: Adobe Illustrator 16.0.3, SVG Export Plug-In . SVG Version: 6.00 Build 0)  -->
<!DOCTYPE svg PUBLIC "-//W3C//DTD SVG 1.1//EN" "http://www.w3.org/Graphics/SVG/1.1/DTD/svg11.dtd">
<svg version="1.1" xmlns="http://www.w3.org/2000/svg" xmlns:xlink="http://www.w3.org/1999/xlink" x="0px" y="0px" width="100px"
	 height="100px" viewBox="0 0 100 100" enable-background="new 0 0 100 100" xml:space="preserve">
<g id="Layer_2">
	<g>
		<path fill="#FFFFFF" d="M47.294,62.534c-0.2-5.689-0.802-9.797-1.801-12.322C40.282,36.588,34.272,30.217,27.46,31.099
			c-8.336,1.08-12.903,5.749-13.705,14.005c-0.521,5.409,4.211,12.762,14.186,22.057C34.152,64.677,40.604,63.134,47.294,62.534z
			 M28.723,84.651h42.916l-0.659-2.404l-7.337-4.748l6.733-4.389C62.722,70.146,55.929,68.646,50,68.604
			c-5.972-0.039-12.704,1.502-20.195,4.627l6.73,4.209l-6.972,4.324L28.723,84.651z M41.226,77.019L50,71.608l8.656,5.41L50,82.429
			L41.226,77.019z M44.107,35.546c3.167,4.77,5.132,8.615,5.893,11.539c0.801-2.924,2.766-6.77,5.89-11.539
			c-2.644-3.486-4.609-5.229-5.89-5.229C48.798,30.317,46.832,32.06,44.107,35.546z M52.705,62.534
			c6.691,0.6,13.14,2.143,19.353,4.627c9.979-9.295,14.706-16.648,14.187-22.057c-0.802-8.256-5.371-12.925-13.704-14.005
			c-6.813-0.882-12.823,5.489-18.031,19.113C53.506,52.737,52.903,56.845,52.705,62.534z"/>
	</g>
</g>
<g id="Layer_1">
	<g>
		<path d="M21.15,90.122l3.063-18.271C13.314,62.112,7.865,53.155,7.865,44.983c0-11.339,6.554-17.853,19.655-19.535
			c2.925-0.36,7.312,1.723,13.163,6.251c2.365-3.525,4.688-5.709,6.971-6.55v-7.334h-6.13v-5.108h6.13V7.958h4.689v4.749h6.133
			v5.108h-6.133v7.334c2.202,0.761,4.547,2.964,7.03,6.61c5.45-4.81,9.818-6.911,13.105-6.312
			c13.064,2.325,19.614,8.835,19.653,19.535c0.042,8.334-5.407,17.29-16.349,26.868l3.066,18.271H21.15z M47.294,62.534
			c-0.2-5.689-0.802-9.797-1.801-12.322C40.282,36.588,34.272,30.217,27.46,31.099c-8.336,1.08-12.903,5.749-13.705,14.005
			c-0.521,5.409,4.211,12.762,14.186,22.057C34.152,64.677,40.604,63.134,47.294,62.534z M28.723,84.651h42.916l-0.659-2.404
			l-7.337-4.748l6.733-4.389C62.722,70.146,55.929,68.646,50,68.604c-5.972-0.039-12.704,1.502-20.195,4.627l6.73,4.209
			l-6.972,4.324L28.723,84.651z M41.226,77.019L50,71.608l8.656,5.41L50,82.429L41.226,77.019z M44.107,35.546
			c3.167,4.77,5.132,8.615,5.893,11.539c0.801-2.924,2.766-6.77,5.89-11.539c-2.644-3.486-4.609-5.229-5.89-5.229
			C48.798,30.317,46.832,32.06,44.107,35.546z M52.705,62.534c6.691,0.6,13.14,2.143,19.353,4.627
			c9.979-9.295,14.706-16.648,14.187-22.057c-0.802-8.256-5.371-12.925-13.704-14.005c-6.813-0.882-12.823,5.489-18.031,19.113
			C53.506,52.737,52.903,56.845,52.705,62.534z"/>
	</g>
</g>
</svg>
