<?xml version="1.0" encoding="utf-8"?>
<!-- Generator: Adobe Illustrator 16.0.3, SVG Export Plug-In . SVG Version: 6.00 Build 0)  -->
<!DOCTYPE svg PUBLIC "-//W3C//DTD SVG 1.1//EN" "http://www.w3.org/Graphics/SVG/1.1/DTD/svg11.dtd">
<svg version="1.1" xmlns="http://www.w3.org/2000/svg" xmlns:xlink="http://www.w3.org/1999/xlink" x="0px" y="0px" width="100px"
	 height="100px" viewBox="0 0 100 100" enable-background="new 0 0 100 100" xml:space="preserve">
<g id="Layer_2">
	<g>
		<path fill="#FFFFFF" d="M31.797,84.447h43.851c-0.959-4.427-1.319-7.593-1.091-9.503c1.948-14.044,1.641-24.309-0.915-30.797
			c-3.776-9.616-9.826-15.971-18.146-19.061l-1.718-4.293l-1.83,2.06c-2.559,1.566-5.555,3.378-8.987,5.438
			c-3.169,1.946-5.172,3.836-6.013,5.668L19.776,45.351v2.232l2.003-1.374l7.729,7.899c2.861-1.946,5.973-2.958,9.331-3.033
			c5.225-0.114,8.66,0.306,10.304,1.259c0.456-0.572,1.734-0.896,3.834-0.975c2.784-0.074,5.629-4.082,8.528-12.019
			c2.1,4.577,1.869,8.777-0.688,12.593c-1.83,2.633-4.122,4.121-6.865,4.465c-1.49,0.191-2.446,0.84-2.864,1.946
			c-1.527,1.756-2.633,3.453-3.319,5.094c-1.259,2.747-3.911,4.619-7.959,5.611c-1.793,1.297-3.702,3.662-5.723,7.098
			C32.559,78.743,31.797,81.509,31.797,84.447z"/>
	</g>
</g>
<g id="Layer_1">
	<g>
		<path d="M33.457,29.895c0.151-1.259,1.984-2.977,5.494-5.151c3.513-2.176,7.022-4.465,10.534-6.87l5.497-7.327l4.579,10.361
			c10.796,5.42,17.667,12.061,20.607,19.921c2.938,7.899,3.699,17.497,2.286,28.793c-0.533,4.084-0.456,7.823,0.231,11.219
			c0.687,3.474,1.604,6.526,2.748,9.16H26.13c-0.308-5.687,0.306-10.504,1.831-14.453c1.527-3.95,4.444-7.718,8.761-11.307
			c2.478-0.533,4.311-1.66,5.492-3.378c1.185-1.716,2.08-3.07,2.69-4.063c-3.778-0.647-6.772-0.609-8.987,0.115
			c-2.212,0.725-3.892,1.658-5.035,2.805c-1.068,1.03-1.794,2.117-2.177,3.263c-0.343,1.03-0.514,1.564-0.514,1.602l-10.304-5.779
			l5.494-3.951l-2.46-2.403L15.14,56.57l-0.574-14.196L33.457,29.895z M31.797,84.447h43.851c-0.959-4.427-1.319-7.593-1.091-9.503
			c1.948-14.044,1.641-24.309-0.915-30.797c-3.776-9.616-9.826-15.971-18.146-19.061l-1.718-4.293l-1.83,2.06
			c-2.559,1.566-5.555,3.378-8.987,5.438c-3.169,1.946-5.172,3.836-6.013,5.668L19.776,45.351v2.232l2.003-1.374l7.729,7.899
			c2.861-1.946,5.973-2.958,9.331-3.033c5.225-0.114,8.66,0.306,10.304,1.259c0.456-0.572,1.734-0.896,3.834-0.975
			c2.784-0.074,5.629-4.082,8.528-12.019c2.1,4.577,1.869,8.777-0.688,12.593c-1.83,2.633-4.122,4.121-6.865,4.465
			c-1.49,0.191-2.446,0.84-2.864,1.946c-1.527,1.756-2.633,3.453-3.319,5.094c-1.259,2.747-3.911,4.619-7.959,5.611
			c-1.793,1.297-3.702,3.662-5.723,7.098C32.559,78.743,31.797,81.509,31.797,84.447z M24.239,45.808l2.691,2.577l2.462-3.607
			l-1.545-1.545L24.239,45.808z M51.03,35.161c1.183,1.756,0.036,2.634-3.436,2.634h-6.98l1.486-2.176
			C45.231,31.002,48.205,30.849,51.03,35.161z"/>
	</g>
</g>
</svg>
