<?xml version="1.0" encoding="utf-8"?>
<!-- Generator: Adobe Illustrator 16.0.3, SVG Export Plug-In . SVG Version: 6.00 Build 0)  -->
<!DOCTYPE svg PUBLIC "-//W3C//DTD SVG 1.1//EN" "http://www.w3.org/Graphics/SVG/1.1/DTD/svg11.dtd">
<svg version="1.1" xmlns="http://www.w3.org/2000/svg" xmlns:xlink="http://www.w3.org/1999/xlink" x="0px" y="0px" width="100px"
	 height="100px" viewBox="0 0 100 100" enable-background="new 0 0 100 100" xml:space="preserve">
<g id="Layer_2">
	<g>
		<path fill="#FFFFFF" d="M28.451,84.333h42.762c-0.535-1.832-2.404-3.739-5.61-5.724c-2.939-1.795-6.03-5.592-9.274-11.393
			c-1.716-3.053-3.091-8.241-4.121-15.568h-4.579c-0.535,5.915-1.851,11.104-3.949,15.568c-2.366,4.923-5.573,8.701-9.617,11.334
			C30.55,80.804,28.681,82.729,28.451,84.333z M42.076,47.126h15.741l-7.612-7.671c3.7-0.688,5.552-3.511,5.552-8.474
			c0-4.273-1.91-6.447-5.724-6.524c-4.161-0.037-6.261,2.328-6.298,7.098c-0.038,4.885,1.983,7.519,6.067,7.9L42.076,47.126z"/>
	</g>
</g>
<g id="Layer_1">
	<g>
		<path d="M50.033,90H22.442v-3.549c-0.152-2.557,0.494-4.741,1.945-6.556c1.45-1.811,3.435-3.538,5.952-5.179
			c3.74-2.864,6.487-6.298,8.243-10.305c1.755-4.007,2.996-8.261,3.722-12.764H28.623l13.566-11.393
			c-2.747-2.404-4.121-5.418-4.121-9.045c0-3.243,1.164-6.048,3.493-8.414c2.326-2.328,5.15-3.491,8.472-3.491
			c3.242,0,6.039,1.172,8.385,3.521c2.348,2.346,3.521,5.142,3.521,8.385c0,3.664-1.375,6.68-4.122,9.045l13.509,11.393H57.702
			c0.688,4.503,1.909,8.757,3.665,12.764c1.754,4.007,4.502,7.44,8.241,10.305c2.521,1.641,4.503,3.368,5.954,5.179
			c1.45,1.814,2.118,3.999,2.004,6.556V90H50.033z M28.451,84.333h42.762c-0.535-1.832-2.404-3.739-5.61-5.724
			c-2.939-1.795-6.03-5.592-9.274-11.393c-1.716-3.053-3.091-8.241-4.121-15.568h-4.579c-0.535,5.915-1.851,11.104-3.949,15.568
			c-2.366,4.923-5.573,8.701-9.617,11.334C30.55,80.804,28.681,82.729,28.451,84.333z M42.076,47.126h15.741l-7.612-7.671
			c3.7-0.688,5.552-3.511,5.552-8.474c0-4.273-1.91-6.447-5.724-6.524c-4.161-0.037-6.261,2.328-6.298,7.098
			c-0.038,4.885,1.983,7.519,6.067,7.9L42.076,47.126z"/>
	</g>
</g>
</svg>
