<?xml version="1.0" encoding="utf-8"?>
<!-- Generator: Adobe Illustrator 16.0.3, SVG Export Plug-In . SVG Version: 6.00 Build 0)  -->
<!DOCTYPE svg PUBLIC "-//W3C//DTD SVG 1.1//EN" "http://www.w3.org/Graphics/SVG/1.1/DTD/svg11.dtd">
<svg version="1.1" xmlns="http://www.w3.org/2000/svg" xmlns:xlink="http://www.w3.org/1999/xlink" x="0px" y="0px" width="100px"
	 height="100px" viewBox="0 0 100 100" enable-background="new 0 0 100 100" xml:space="preserve">
<g id="Layer_2">
	<g>
		<path fill="#FFFFFF" d="M14.309,38.366c-1.488,0-2.232,0.745-2.232,2.233c0,1.451,0.744,2.174,2.232,2.174
			s2.232-0.723,2.232-2.174C16.541,39.111,15.797,38.366,14.309,38.366z M30.223,67.961c5.762-2.48,12.363-3.721,19.805-3.721
			c7.328,0.039,13.949,1.279,19.865,3.721l5.438-14.253l-7.785,5.438l-5.496-26.39L50.027,57.43L37.664,32.757l-5.15,26.39
			l-7.787-5.438L30.223,67.961z M29.766,84.791h40.871l-0.631-2.29l-6.982-4.522l6.41-4.179c-7.289-2.824-13.758-4.254-19.406-4.293
			c-5.686-0.037-12.098,1.431-19.232,4.407l6.412,4.009l-6.641,4.119L29.766,84.791z M36.52,19.591
			c-1.488,0-2.232,0.745-2.232,2.233c0,1.451,0.744,2.174,2.232,2.174s2.232-0.723,2.232-2.174
			C38.752,20.336,38.008,19.591,36.52,19.591z M41.672,77.521l8.355-5.152l8.244,5.152l-8.244,5.152L41.672,77.521z M63.479,19.591
			c-1.486,0-2.23,0.745-2.23,2.233c0,1.451,0.744,2.174,2.23,2.174c1.451,0,2.178-0.723,2.178-2.174
			C65.656,20.336,64.93,19.591,63.479,19.591z M85.635,38.366c-1.488,0-2.234,0.745-2.234,2.233c0,1.451,0.746,2.174,2.234,2.174
			s2.232-0.723,2.232-2.174C87.867,39.111,87.123,38.366,85.635,38.366z"/>
	</g>
</g>
<g id="Layer_1">
	<g>
		<path d="M50.027,90H22.209c3.586-7.327,4.484-14.597,2.689-21.81c-1.793-7.175-5.02-14.331-9.674-21.466
			c-0.152,0.076-0.459,0.114-0.916,0.114c-1.717,0-3.178-0.601-4.379-1.802c-1.201-1.203-1.803-2.683-1.803-4.438
			c0-1.718,0.602-3.187,1.803-4.408c1.201-1.221,2.662-1.832,4.379-1.832s3.205,0.611,4.465,1.832
			c1.221,1.222,1.832,2.69,1.832,4.408c0,0.649-0.096,1.241-0.285,1.774c-0.154,0.535-0.402,1.068-0.746,1.603l9.389,6.641
			l4.809-23.126c-2.1-1.03-3.244-2.69-3.436-4.981c-0.152-1.373,0.307-2.805,1.375-4.293c1.068-1.525,2.451-2.384,4.15-2.575
			c1.697-0.191,3.223,0.268,4.58,1.373c1.354,1.107,2.107,2.519,2.26,4.236c0.229,2.214-0.496,4.007-2.176,5.382l9.502,19.634
			l9.391-19.634c-1.682-1.375-2.406-3.168-2.178-5.382c0.189-1.718,0.953-3.129,2.289-4.236c1.299-1.105,2.824-1.564,4.58-1.373
			c1.68,0.191,3.053,1.05,4.121,2.575c1.107,1.488,1.586,2.92,1.432,4.293c-0.268,2.291-1.412,3.951-3.434,4.981l4.807,23.126
			l9.389-6.641c-0.42-0.534-0.686-1.067-0.801-1.603c-0.191-0.726-0.287-1.318-0.287-1.774c0-1.718,0.611-3.187,1.834-4.408
			c1.219-1.221,2.707-1.832,4.465-1.832c1.717,0,3.186,0.611,4.408,1.832c1.219,1.222,1.83,2.69,1.83,4.408
			c0,1.755-0.611,3.234-1.83,4.438c-1.223,1.201-2.691,1.802-4.408,1.802c-0.422,0-0.727-0.038-0.916-0.114
			c-4.656,7.135-7.9,14.291-9.732,21.466c-1.795,7.213-0.877,14.482,2.748,21.81H50.027z M14.309,38.366
			c-1.488,0-2.232,0.745-2.232,2.233c0,1.451,0.744,2.174,2.232,2.174s2.232-0.723,2.232-2.174
			C16.541,39.111,15.797,38.366,14.309,38.366z M30.223,67.961c5.762-2.48,12.363-3.721,19.805-3.721
			c7.328,0.039,13.949,1.279,19.865,3.721l5.438-14.253l-7.785,5.438l-5.496-26.39L50.027,57.43L37.664,32.757l-5.15,26.39
			l-7.787-5.438L30.223,67.961z M29.766,84.791h40.871l-0.631-2.29l-6.982-4.522l6.41-4.179c-7.289-2.824-13.758-4.254-19.406-4.293
			c-5.686-0.037-12.098,1.431-19.232,4.407l6.412,4.009l-6.641,4.119L29.766,84.791z M36.52,19.591
			c-1.488,0-2.232,0.745-2.232,2.233c0,1.451,0.744,2.174,2.232,2.174s2.232-0.723,2.232-2.174
			C38.752,20.336,38.008,19.591,36.52,19.591z M41.672,77.521l8.355-5.152l8.244,5.152l-8.244,5.152L41.672,77.521z M63.479,19.591
			c-1.486,0-2.23,0.745-2.23,2.233c0,1.451,0.744,2.174,2.23,2.174c1.451,0,2.178-0.723,2.178-2.174
			C65.656,20.336,64.93,19.591,63.479,19.591z M85.635,38.366c-1.488,0-2.234,0.745-2.234,2.233c0,1.451,0.746,2.174,2.234,2.174
			s2.232-0.723,2.232-2.174C87.867,39.111,87.123,38.366,85.635,38.366z"/>
	</g>
</g>
</svg>
