<?xml version="1.0" encoding="utf-8"?>
<!-- Generator: Adobe Illustrator 16.0.3, SVG Export Plug-In . SVG Version: 6.00 Build 0)  -->
<!DOCTYPE svg PUBLIC "-//W3C//DTD SVG 1.1//EN" "http://www.w3.org/Graphics/SVG/1.1/DTD/svg11.dtd">
<svg version="1.1" xmlns="http://www.w3.org/2000/svg" xmlns:xlink="http://www.w3.org/1999/xlink" x="0px" y="0px" width="100px"
	 height="100px" viewBox="0 0 100 100" enable-background="new 0 0 100 100" xml:space="preserve">
<g id="Layer_2">
	<g>
		<path fill="#FFFFFF" d="M25.701,84.791h48.6l-0.516-4.866l-6.871-5.208H33.197l-7.098,5.38L25.701,84.791z M35.832,37.508H64.34
			l7.211-4.865l0.459-8.529h-4.121v6.868H52.316v-6.868h-4.52v6.868H32.398v-6.868h-4.295l0.459,8.358L35.832,37.508z M34.172,69.05
			h31.484l-1.66-25.817H35.889L34.172,69.05z"/>
	</g>
</g>
<g id="Layer_1">
	<g>
		<path d="M19.402,90l1.375-12.593l7.613-5.667l2.346-31.427l-7.098-5.095l-0.801-16.314h13.795v7.041h6.525v-7.041h13.623v7.041
			h6.584v-7.041h13.738l-0.801,16.314l-7.098,5.095l2.404,31.427l7.555,5.667L80.598,90H49.971H19.402z M25.701,84.791h48.6
			l-0.516-4.866l-6.871-5.208H33.197l-7.098,5.38L25.701,84.791z M35.832,37.508H64.34l7.211-4.865l0.459-8.529h-4.121v6.868H52.316
			v-6.868h-4.52v6.868H32.398v-6.868h-4.295l0.459,8.358L35.832,37.508z M34.172,69.05h31.484l-1.66-25.817H35.889L34.172,69.05z"/>
	</g>
</g>
</svg>
