<?xml version="1.0" encoding="utf-8"?>
<!-- Generator: Adobe Illustrator 16.0.3, SVG Export Plug-In . SVG Version: 6.00 Build 0)  -->
<!DOCTYPE svg PUBLIC "-//W3C//DTD SVG 1.1//EN" "http://www.w3.org/Graphics/SVG/1.1/DTD/svg11.dtd">
<svg version="1.1" id="Layer_1" xmlns="http://www.w3.org/2000/svg" xmlns:xlink="http://www.w3.org/1999/xlink" x="0px" y="0px"
	 width="1000px" height="600px" viewBox="175 150 1000 600" enable-background="new 175 150 1000 600" xml:space="preserve">
<g>
	<rect x="175" y="150" fill="#FF9933" width="1000" height="600"/>
	<rect x="175" y="350" fill="#FFFFFF" width="1000" height="200"/>
	<rect x="175" y="550" fill="#128807" width="1000" height="200"/>
	<path fill="#000088" d="M675,370c-44.183,0-80,35.817-80,80c0,44.183,35.817,80,80,80c44.184,0,80-35.817,80-80
		C755,405.817,719.184,370,675,370z M675,520c-38.66,0-70-31.34-70-70s31.34-70,70-70s70,31.34,70,70S713.66,520,675,520z"/>
	<circle fill="#000088" cx="675" cy="450" r="14"/>
	<circle fill="#000088" cx="744.401" cy="459.137" r="3.5"/>
	<path fill="#000088" d="M675,520l2.4-42l-2.4-20l-2.4,20L675,520z"/>
	<circle fill="#000088" cx="739.671" cy="476.788" r="3.5"/>
	<path fill="#000088" d="M656.883,517.614l13.189-39.947l2.858-19.939l-7.495,18.697L656.883,517.614z"/>
	<circle fill="#000088" cx="730.535" cy="492.613" r="3.5"/>
	<path fill="#000088" d="M640,510.622l23.078-35.174l7.922-18.52l-12.078,16.12L640,510.622z"/>
	<circle fill="#000088" cx="717.613" cy="505.535" r="3.5"/>
	<path fill="#000088" d="M625.502,499.497l31.396-28.001l12.445-15.839l-15.839,12.445L625.502,499.497z"/>
	<circle fill="#000088" cx="701.788" cy="514.671" r="3.5"/>
	<path fill="#000088" d="M614.378,485l37.573-18.921L668.072,454l-18.521,7.921L614.378,485z"/>
	<circle fill="#000088" cx="684.137" cy="519.401" r="3.501"/>
	<path fill="#000088" d="M607.385,468.117l41.19-8.552l18.697-7.495l-19.94,2.858L607.385,468.117z"/>
	<circle fill="#000088" cx="665.863" cy="519.401" r="3.5"/>
	<path fill="#000088" d="M605,450l42,2.399L667,450l-20-2.4L605,450z"/>
	<circle fill="#000088" cx="648.212" cy="514.671" r="3.5"/>
	<path fill="#000088" d="M607.385,431.883l39.947,13.189l19.94,2.858l-18.697-7.495L607.385,431.883z"/>
	<circle fill="#000088" cx="632.387" cy="505.535" r="3.5"/>
	<path fill="#000088" d="M614.378,415l35.173,23.079L668.072,446l-16.121-12.079L614.378,415z"/>
	<circle fill="#000088" cx="619.465" cy="492.613" r="3.5"/>
	<path fill="#000088" d="M625.502,400.502l28.001,31.396l15.839,12.445l-12.445-15.839L625.502,400.502z"/>
	<circle fill="#000088" cx="610.328" cy="476.788" r="3.5"/>
	<path fill="#000088" d="M640,389.378l18.922,37.573L671,443.072l-7.922-18.521L640,389.378z"/>
	<circle fill="#000088" cx="605.599" cy="459.137" r="3.5"/>
	<path fill="#000088" d="M656.883,382.385l8.552,41.19l7.495,18.697l-2.858-19.94L656.883,382.385z"/>
	<circle fill="#000088" cx="605.599" cy="440.863" r="3.5"/>
	<path fill="#000088" d="M675,380l-2.4,42l2.4,20l2.4-20L675,380z"/>
	<circle fill="#000088" cx="610.328" cy="423.212" r="3.5"/>
	<path fill="#000088" d="M693.117,382.385l-13.189,39.947l-2.857,19.94l7.494-18.697L693.117,382.385z"/>
	<circle fill="#000088" cx="619.465" cy="407.387" r="3.5"/>
	<path fill="#000088" d="M710,389.378l-23.078,35.173L679,443.072l12.078-16.121L710,389.378z"/>
	<circle fill="#000088" cx="632.387" cy="394.465" r="3.5"/>
	<path fill="#000088" d="M724.498,400.502l-31.396,28.001l-12.445,15.839l15.84-12.445L724.498,400.502z"/>
	<circle fill="#000088" cx="648.212" cy="385.328" r="3.5"/>
	<path fill="#000088" d="M735.622,415l-37.573,18.921L681.928,446l18.521-7.921L735.622,415z"/>
	<circle fill="#000088" cx="665.863" cy="380.599" r="3.5"/>
	<path fill="#000088" d="M742.614,431.883l-41.19,8.552l-18.697,7.495l19.941-2.858L742.614,431.883z"/>
	<circle fill="#000088" cx="684.137" cy="380.599" r="3.501"/>
	<path fill="#000088" d="M745,450l-42-2.4l-20,2.4l20,2.399L745,450z"/>
	<circle fill="#000088" cx="701.788" cy="385.328" r="3.5"/>
	<path fill="#000088" d="M742.614,468.117l-39.946-13.188l-19.941-2.858l18.697,7.495L742.614,468.117z"/>
	<circle fill="#000088" cx="717.613" cy="394.465" r="3.5"/>
	<path fill="#000088" d="M735.622,485l-35.173-23.079L681.928,454l16.121,12.079L735.622,485z"/>
	<circle fill="#000088" cx="730.535" cy="407.387" r="3.5"/>
	<path fill="#000088" d="M724.498,499.497l-28.002-31.395l-15.84-12.445l12.445,15.839L724.498,499.497z"/>
	<circle fill="#000088" cx="739.671" cy="423.212" r="3.5"/>
	<path fill="#000088" d="M710,510.622l-18.922-37.573L679,456.929l7.922,18.52L710,510.622z"/>
	<circle fill="#000088" cx="744.401" cy="440.863" r="3.5"/>
	<path fill="#000088" d="M693.117,517.614l-8.553-41.189l-7.494-18.697l2.857,19.939L693.117,517.614z"/>
</g>
</svg>
