<?xml version="1.0" encoding="utf-8"?>
<!-- Generator: Adobe Illustrator 16.0.3, SVG Export Plug-In . SVG Version: 6.00 Build 0)  -->
<!DOCTYPE svg PUBLIC "-//W3C//DTD SVG 1.1//EN" "http://www.w3.org/Graphics/SVG/1.1/DTD/svg11.dtd">
<svg version="1.1" id="Layer_1" xmlns="http://www.w3.org/2000/svg" xmlns:xlink="http://www.w3.org/1999/xlink" x="0px" y="0px"
	 width="1000px" height="600px" viewBox="117.5 25 1000 600" enable-background="new 117.5 25 1000 600" xml:space="preserve">
<g>
	<g>
		<g>
			<g id="star_17_">
			</g>
			<g id="star_18_">
			</g>
			<g id="star_19_">
			</g>
			<g id="star_20_">
			</g>
			<g id="star_21_">
			</g>
		</g>
	</g>
	<g>
		<g>
			<g id="s6_2_">
			</g>
			<g id="s5_3_">
			</g>
			<g id="s6_3_">
			</g>
			<g id="s5_4_">
			</g>
		</g>
		<g id="s6_4_">
		</g>
	</g>
</g>
<g>
	<rect x="117.5" y="25" fill="#FFFFFF" width="1000" height="600"/>
	<g>
		<rect id="stripe" x="117.5" y="25" fill="#B22234" width="1000" height="46.154"/>
	</g>
	<g>
		<rect id="stripe_1_" x="117.5" y="117.308" fill="#B22234" width="1000" height="46.154"/>
	</g>
	<g>
		<rect id="stripe_2_" x="117.5" y="209.615" fill="#B22234" width="1000" height="46.154"/>
	</g>
	<g>
		<rect id="stripe_3_" x="117.5" y="301.923" fill="#B22234" width="1000" height="46.154"/>
	</g>
	<g>
		<rect id="stripe_4_" x="117.5" y="394.23" fill="#B22234" width="1000" height="46.154"/>
	</g>
	<g>
		<rect id="stripe_5_" x="117.5" y="486.538" fill="#B22234" width="1000" height="46.154"/>
	</g>
	<g>
		<rect id="stripe_6_" x="117.5" y="578.846" fill="#B22234" width="1000" height="46.154"/>
	</g>
	<rect x="117.5" y="25" fill="#3C3B6E" width="456" height="323.077"/>
	<g>
		<polygon fill="#FFFFFF" points="156.5,38.458 152.351,51.228 138.925,51.228 149.787,59.12 145.638,71.889 156.5,63.997 
			167.362,71.889 163.213,59.12 174.075,51.228 160.649,51.228 		"/>
		<polygon fill="#FFFFFF" points="232.1,38.458 227.951,51.228 214.524,51.228 225.386,59.12 221.237,71.889 232.1,63.997 
			242.962,71.889 238.813,59.12 249.675,51.228 236.249,51.228 		"/>
		<polygon fill="#FFFFFF" points="307.7,38.458 303.551,51.228 290.125,51.228 300.987,59.12 296.838,71.889 307.7,63.997 
			318.562,71.889 314.413,59.12 325.276,51.228 311.849,51.228 		"/>
		<polygon fill="#FFFFFF" points="383.3,38.458 379.151,51.228 365.724,51.228 376.587,59.12 372.438,71.889 383.3,63.997 
			394.162,71.889 390.013,59.12 400.875,51.228 387.449,51.228 		"/>
		<polygon fill="#FFFFFF" points="458.9,38.458 454.751,51.228 441.325,51.228 452.187,59.12 448.038,71.889 458.9,63.997 
			469.763,71.889 465.614,59.12 476.476,51.228 463.049,51.228 		"/>
		<polygon fill="#FFFFFF" points="527.787,59.12 523.638,71.889 534.5,63.997 545.362,71.889 541.213,59.12 552.075,51.228 
			538.649,51.228 534.5,38.458 530.351,51.228 516.925,51.228 		"/>
		<polygon fill="#FFFFFF" points="198.449,83.628 194.3,70.858 190.151,83.628 176.724,83.628 187.587,91.52 183.438,104.289 
			194.3,96.397 205.162,104.289 201.013,91.52 211.875,83.628 		"/>
		<polygon fill="#FFFFFF" points="274.049,83.628 269.9,70.858 265.751,83.628 252.325,83.628 263.187,91.52 259.038,104.289 
			269.9,96.397 280.763,104.289 276.614,91.52 287.476,83.628 		"/>
		<polygon fill="#FFFFFF" points="349.649,83.628 345.5,70.858 341.351,83.628 327.925,83.628 338.787,91.52 334.638,104.289 
			345.5,96.397 356.362,104.289 352.213,91.52 363.075,83.628 		"/>
		<polygon fill="#FFFFFF" points="425.249,83.628 421.1,70.858 416.951,83.628 403.524,83.628 414.386,91.52 410.237,104.289 
			421.1,96.397 431.962,104.289 427.813,91.52 438.675,83.628 		"/>
		<polygon fill="#FFFFFF" points="500.849,83.628 496.7,70.858 492.551,83.628 479.125,83.628 489.986,91.52 485.837,104.289 
			496.7,96.397 507.562,104.289 503.413,91.52 514.275,83.628 		"/>
	</g>
	<g>
		<polygon fill="#FFFFFF" points="156.5,102.854 152.351,115.624 138.925,115.624 149.787,123.515 145.638,136.284 156.5,128.393 
			167.362,136.284 163.213,123.515 174.075,115.624 160.649,115.624 		"/>
		<polygon fill="#FFFFFF" points="232.1,102.854 227.951,115.624 214.524,115.624 225.386,123.515 221.237,136.284 232.1,128.393 
			242.962,136.284 238.813,123.515 249.675,115.624 236.249,115.624 		"/>
		<polygon fill="#FFFFFF" points="307.7,102.854 303.551,115.624 290.125,115.624 300.987,123.515 296.838,136.284 307.7,128.392 
			318.562,136.284 314.413,123.515 325.276,115.624 311.849,115.624 		"/>
		<polygon fill="#FFFFFF" points="383.3,102.854 379.151,115.624 365.724,115.624 376.587,123.515 372.438,136.284 383.3,128.392 
			394.162,136.284 390.013,123.515 400.875,115.624 387.449,115.624 		"/>
		<polygon fill="#FFFFFF" points="458.9,102.854 454.751,115.624 441.325,115.624 452.187,123.515 448.038,136.284 458.9,128.393 
			469.763,136.284 465.614,123.515 476.476,115.624 463.049,115.624 		"/>
		<polygon fill="#FFFFFF" points="527.787,123.515 523.638,136.284 534.5,128.393 545.362,136.284 541.213,123.515 552.075,115.624 
			538.649,115.624 534.5,102.854 530.351,115.624 516.925,115.624 		"/>
		<polygon fill="#FFFFFF" points="198.449,148.023 194.3,135.253 190.151,148.023 176.724,148.023 187.587,155.916 183.438,168.685 
			194.3,160.792 205.162,168.685 201.013,155.916 211.875,148.023 		"/>
		<polygon fill="#FFFFFF" points="274.049,148.023 269.9,135.253 265.751,148.023 252.325,148.023 263.187,155.915 259.038,168.685 
			269.9,160.793 280.763,168.685 276.614,155.915 287.476,148.023 		"/>
		<polygon fill="#FFFFFF" points="349.649,148.023 345.5,135.253 341.351,148.023 327.925,148.023 338.787,155.915 334.638,168.685 
			345.5,160.793 356.362,168.685 352.213,155.915 363.075,148.023 		"/>
		<polygon fill="#FFFFFF" points="425.249,148.023 421.1,135.253 416.951,148.023 403.524,148.023 414.386,155.915 410.237,168.685 
			421.1,160.793 431.962,168.685 427.813,155.915 438.675,148.023 		"/>
		<polygon fill="#FFFFFF" points="500.849,148.023 496.7,135.253 492.551,148.023 479.125,148.023 489.986,155.915 485.837,168.685 
			496.7,160.793 507.562,168.685 503.413,155.916 514.275,148.023 		"/>
	</g>
	<g>
		<polygon fill="#FFFFFF" points="156.5,171.162 152.351,183.931 138.925,183.931 149.787,191.823 145.638,204.592 156.5,196.7 
			167.362,204.592 163.213,191.823 174.075,183.931 160.649,183.931 		"/>
		<polygon fill="#FFFFFF" points="232.1,171.162 227.951,183.931 214.524,183.931 225.386,191.823 221.237,204.592 232.1,196.7 
			242.962,204.592 238.813,191.823 249.675,183.931 236.249,183.931 		"/>
		<polygon fill="#FFFFFF" points="307.7,171.162 303.551,183.931 290.125,183.931 300.987,191.823 296.838,204.592 307.7,196.7 
			318.562,204.592 314.413,191.823 325.276,183.931 311.849,183.931 		"/>
		<polygon fill="#FFFFFF" points="383.3,171.162 379.151,183.931 365.724,183.931 376.587,191.823 372.438,204.592 383.3,196.7 
			394.162,204.592 390.013,191.823 400.875,183.931 387.449,183.931 		"/>
		<polygon fill="#FFFFFF" points="458.9,171.162 454.751,183.931 441.325,183.931 452.187,191.823 448.038,204.592 458.9,196.7 
			469.763,204.592 465.614,191.823 476.476,183.931 463.049,183.931 		"/>
		<polygon fill="#FFFFFF" points="527.787,191.823 523.638,204.592 534.5,196.7 545.362,204.592 541.213,191.823 552.075,183.931 
			538.649,183.931 534.5,171.162 530.351,183.931 516.925,183.931 		"/>
		<polygon fill="#FFFFFF" points="198.449,216.331 194.3,203.562 190.151,216.331 176.724,216.331 187.587,224.223 183.438,236.992 
			194.3,229.1 205.162,236.992 201.013,224.223 211.875,216.331 		"/>
		<polygon fill="#FFFFFF" points="274.049,216.331 269.9,203.562 265.751,216.331 252.325,216.331 263.187,224.223 259.038,236.992 
			269.9,229.101 280.763,236.992 276.614,224.223 287.476,216.331 		"/>
		<polygon fill="#FFFFFF" points="349.649,216.331 345.5,203.562 341.351,216.331 327.925,216.331 338.787,224.223 334.638,236.992 
			345.5,229.101 356.362,236.992 352.213,224.223 363.075,216.331 		"/>
		<polygon fill="#FFFFFF" points="425.249,216.331 421.1,203.562 416.951,216.331 403.524,216.331 414.386,224.223 410.237,236.992 
			421.1,229.101 431.962,236.992 427.813,224.223 438.675,216.331 		"/>
		<polygon fill="#FFFFFF" points="500.849,216.331 496.7,203.562 492.551,216.331 479.125,216.331 489.986,224.223 485.837,236.992 
			496.7,229.101 507.562,236.992 503.413,224.223 514.275,216.331 		"/>
	</g>
	<g>
		<polygon fill="#FFFFFF" points="156.5,236.992 152.351,249.762 138.925,249.762 149.787,257.653 145.638,270.423 156.5,262.531 
			167.362,270.423 163.213,257.653 174.075,249.762 160.649,249.762 		"/>
		<polygon fill="#FFFFFF" points="232.1,236.992 227.951,249.762 214.524,249.762 225.386,257.653 221.237,270.423 232.1,262.531 
			242.962,270.423 238.813,257.653 249.675,249.762 236.249,249.762 		"/>
		<polygon fill="#FFFFFF" points="307.7,236.992 303.551,249.762 290.125,249.762 300.987,257.653 296.838,270.423 307.7,262.53 
			318.562,270.423 314.413,257.653 325.276,249.762 311.849,249.762 		"/>
		<polygon fill="#FFFFFF" points="383.3,236.992 379.151,249.762 365.724,249.762 376.587,257.653 372.438,270.423 383.3,262.53 
			394.162,270.423 390.013,257.653 400.875,249.762 387.449,249.762 		"/>
		<polygon fill="#FFFFFF" points="458.9,236.992 454.751,249.762 441.325,249.762 452.187,257.653 448.038,270.423 458.9,262.531 
			469.763,270.423 465.614,257.653 476.476,249.762 463.049,249.762 		"/>
		<polygon fill="#FFFFFF" points="527.787,257.653 523.638,270.423 534.5,262.531 545.362,270.423 541.213,257.653 552.075,249.762 
			538.649,249.762 534.5,236.992 530.351,249.762 516.925,249.762 		"/>
		<polygon fill="#FFFFFF" points="198.449,282.162 194.3,269.392 190.151,282.162 176.724,282.162 187.587,290.054 183.438,302.823 
			194.3,294.931 205.162,302.823 201.013,290.054 211.875,282.162 		"/>
		<polygon fill="#FFFFFF" points="274.049,282.162 269.9,269.392 265.751,282.162 252.325,282.162 263.187,290.053 259.038,302.823 
			269.9,294.931 280.763,302.823 276.614,290.053 287.476,282.162 		"/>
		<polygon fill="#FFFFFF" points="349.649,282.162 345.5,269.392 341.351,282.162 327.925,282.162 338.787,290.053 334.638,302.823 
			345.5,294.931 356.362,302.823 352.213,290.053 363.075,282.162 		"/>
		<polygon fill="#FFFFFF" points="425.249,282.162 421.1,269.392 416.951,282.162 403.524,282.162 414.386,290.053 410.237,302.823 
			421.1,294.931 431.962,302.823 427.813,290.053 438.675,282.162 		"/>
		<polygon fill="#FFFFFF" points="500.849,282.162 496.7,269.392 492.551,282.162 479.125,282.162 489.986,290.053 485.837,302.823 
			496.7,294.931 507.562,302.823 503.413,290.054 514.275,282.162 		"/>
	</g>
	<g>
		<polygon fill="#FFFFFF" points="156.5,302.839 152.351,315.608 138.925,315.608 149.787,323.5 145.638,336.269 156.5,328.377 
			167.362,336.269 163.213,323.5 174.075,315.608 160.649,315.608 		"/>
		<polygon fill="#FFFFFF" points="232.1,302.839 227.951,315.608 214.524,315.608 225.386,323.5 221.237,336.269 232.1,328.377 
			242.962,336.269 238.813,323.5 249.675,315.608 236.249,315.608 		"/>
		<polygon fill="#FFFFFF" points="307.7,302.839 303.551,315.608 290.125,315.608 300.987,323.5 296.838,336.269 307.7,328.377 
			318.562,336.269 314.413,323.5 325.276,315.608 311.849,315.608 		"/>
		<polygon fill="#FFFFFF" points="383.3,302.839 379.151,315.608 365.724,315.608 376.587,323.5 372.438,336.269 383.3,328.377 
			394.162,336.269 390.013,323.5 400.875,315.608 387.449,315.608 		"/>
		<polygon fill="#FFFFFF" points="458.9,302.839 454.751,315.608 441.325,315.608 452.187,323.5 448.038,336.269 458.9,328.377 
			469.763,336.269 465.614,323.5 476.476,315.608 463.049,315.608 		"/>
		<polygon fill="#FFFFFF" points="527.787,323.5 523.638,336.269 534.5,328.377 545.362,336.269 541.213,323.5 552.075,315.608 
			538.649,315.608 534.5,302.839 530.351,315.608 516.925,315.608 		"/>
	</g>
</g>
</svg>
