<?xml version="1.0" encoding="utf-8"?>
<!-- Generator: Adobe Illustrator 16.0.3, SVG Export Plug-In . SVG Version: 6.00 Build 0)  -->
<!DOCTYPE svg PUBLIC "-//W3C//DTD SVG 1.1//EN" "http://www.w3.org/Graphics/SVG/1.1/DTD/svg11.dtd">
<svg version="1.1"
	 id="svg2" sodipodi:docname="USSR1.svg" inkscape:version="0.48.3.1 r9886" xmlns:dc="http://purl.org/dc/elements/1.1/" xmlns:cc="http://creativecommons.org/ns#" xmlns:rdf="http://www.w3.org/1999/02/22-rdf-syntax-ns#" xmlns:svg="http://www.w3.org/2000/svg" xmlns:sodipodi="http://sodipodi.sourceforge.net/DTD/sodipodi-0.dtd" xmlns:inkscape="http://www.inkscape.org/namespaces/inkscape"
	 xmlns="http://www.w3.org/2000/svg" xmlns:xlink="http://www.w3.org/1999/xlink" x="0px" y="0px" width="1000px" height="600px"
	 viewBox="100 0 1000 600" enable-background="new 100 0 1000 600" xml:space="preserve">
<sodipodi:namedview  inkscape:current-layer="svg2" inkscape:window-y="-8" inkscape:window-x="-8" inkscape:pageopacity="0" inkscape:pageshadow="2" inkscape:window-width="1600" inkscape:window-height="848" showgrid="false" inkscape:cy="401.6365" inkscape:cx="211.07249" inkscape:zoom="0.5" pagecolor="#ffffff" bordercolor="#666666" guidetolerance="10" objecttolerance="10" gridtolerance="10" borderopacity="1" id="namedview12" inkscape:window-maximized="1">
	</sodipodi:namedview>
<g>
	<rect id="rect4" x="100" fill="#CC0000" width="1200" height="600"/>
	<path id="path6" fill="#FFD700" d="M291.6,61.4h-27l21.8,16l-8.2,25.6L300,87.2l21.8,15.8l-8.2-25.6l21.8-16h-27L300,35.6
		L291.6,61.4L291.6,61.4z M300,51.6l4.8,14.8h15.4l-12.4,9l4.72,14.7L300,81l-12.52,9.1l4.72-14.7l-12.4-9h15.4L300,51.6z"/>
	<path id="hammer_head" sodipodi:nodetypes="ccccccccc" inkscape:connector-curvature="0" fill="#FFD700" d="M266.577,138.645
		l-33.985,32.371l18.125,18.125l15.651-15.755c30.522,30.98,54.246,55.065,83.719,84.978c8.16,8.46,22.369-3.044,13.269-12.812
		c-31.139-30.347-52.722-52.25-85.165-84.067l19.234-19.348L266.577,138.645z"/>
	<g id="g3852" transform="matrix(0.83334944,0,0,0.83334944,-15.22385,-132.01121)">
		<path id="sickle_handle" sodipodi:nodetypes="cccccccccccc" inkscape:connector-curvature="0" fill="#FFD700" d="M336.779,433.75
			c72.961,67.686,191.195-54.363,40.094-142.813l0,0c112.447,124.929,4.494,163.227-34.594,124.687L340.31,414
			c-1.596,1.791-3.195,3.58-4.789,5.374c-3.029-2.859-7.732-3.699-9.18,1.189c-5.95-0.412-9.442,2.885-11,9.063
			c-11.069,7.333-23.051,13.766-29.938,25.281c-3.936,12.18,3.849,17.478,12.657,16.469c14.437-5.998,18.898-18.961,26.625-29.657
			c5.461-1.738,10.087-4.076,10.936-9.048"/>
	</g>
</g>
</svg>
