<?xml version="1.0" encoding="utf-8"?>
<!-- Generator: Adobe Illustrator 16.0.3, SVG Export Plug-In . SVG Version: 6.00 Build 0)  -->
<!DOCTYPE svg PUBLIC "-//W3C//DTD SVG 1.1//EN" "http://www.w3.org/Graphics/SVG/1.1/DTD/svg11.dtd">
<svg version="1.1"
	 id="svg16632" sodipodi:modified="true" sodipodi:docbase="C:\Documents and Settings\Owner\Desktop\New Folder" inkscape:output_extension="org.inkscape.output.svg.inkscape" sodipodi:docname="Austria-Hungary_flag_1869-1918.svg" inkscape:version="0.45" sodipodi:version="0.32" xmlns:dc="http://purl.org/dc/elements/1.1/" xmlns:cc="http://web.resource.org/cc/" xmlns:rdf="http://www.w3.org/1999/02/22-rdf-syntax-ns#" xmlns:svg="http://www.w3.org/2000/svg" xmlns:sodipodi="http://sodipodi.sourceforge.net/DTD/sodipodi-0.dtd" xmlns:inkscape="http://www.inkscape.org/namespaces/inkscape"
	 xmlns="http://www.w3.org/2000/svg" xmlns:xlink="http://www.w3.org/1999/xlink" x="0px" y="0px" width="1000px" height="600px"
	 viewBox="-176 -83.999 1000 600" enable-background="new -176 -83.999 1000 600" xml:space="preserve">
<sodipodi:namedview  inkscape:current-layer="svg16632" inkscape:window-y="87" inkscape:window-x="66" inkscape:pageopacity="0.0" inkscape:pageshadow="2" inkscape:window-width="744" inkscape:window-height="598" inkscape:cy="173.46412" inkscape:cx="368.31829" inkscape:zoom="0.32245228" pagecolor="#ffffff" bordercolor="#666666" guidetolerance="10.0" objecttolerance="10.0" gridtolerance="10.0" borderopacity="1.0" id="base">
	</sodipodi:namedview>
<g id="Ebene_1">
	<rect id="rect1981" x="-176" y="-83.999" fill="#D81E05" width="1000" height="199.999"/>
	<rect id="rect2868" x="-176" y="116" fill="#FFFFFF" width="1000" height="199.999"/>
	<rect id="rect1998" x="-176" y="315.999" fill="#D81E05" width="500" height="200.002"/>
	<rect id="rect1998_2_" x="324" y="315.999" fill="#008D46" width="500" height="200.002"/>
	<path id="path2089_1_" fill="#D81E05" d="M458.137,307.782c-8.545,0-9.017-9.002-9.023-10.806c0,0,0-144.148,0-172.54h184.638
		v172.537c-0.009,1.81-0.479,10.811-9.022,10.811h-77.291l-6.004,6.738l-6.004-6.738h-77.293V307.782z"/>
	<path id="path7335" fill="#008D46" d="M542.213,313.54l4.557-17.179c1.403-9.992,16.651-25.421,16.651-25.421
		s8.242-1.754,10.343,0.526c1.651,1.79,3.155,2.979,3.155,2.979l3.854-4.207c1.053-1.228,4.909-4.206,4.909-4.206h14.374
		c0,0,6.136,5.257,7.188,7.89c0,0,5.963-5.083,6.664-4.382c0,0,8.589-0.701,8.589,0.524c0,0,10.869,7.714,12.798,17.181l1.577,8.415
		l-4.729,15.426L542.213,313.54z"/>
	<line id="path14433" fill="none" stroke="#FFFFFF" stroke-width="6" x1="593.217" y1="258.016" x2="593.253" y2="146.804"/>
	<line id="path15321" fill="none" stroke="#FFFFFF" stroke-width="6" x1="563.756" y1="195.539" x2="622.466" y2="195.539"/>
	<line id="path15323" fill="none" stroke="#FFFFFF" stroke-width="6" x1="569.428" y1="170.555" x2="616.945" y2="170.555"/>
	<line id="path16210" fill="none" stroke="#FFFFFF" stroke-width="3" x1="562.609" y1="188.648" x2="562.549" y2="202.593"/>
	<line id="path16212" fill="none" stroke="#FFFFFF" stroke-width="3" x1="623.721" y1="188.648" x2="623.846" y2="202.593"/>
	<line id="path16214" fill="none" stroke="#FFFFFF" stroke-width="3" x1="568.178" y1="163.081" x2="568.064" y2="177.501"/>
	<line id="path16216" fill="none" stroke="#FFFFFF" stroke-width="3" x1="618.206" y1="163.606" x2="618.206" y2="177.613"/>
	<line id="path16218" fill="none" stroke="#FFFFFF" stroke-width="3" x1="586.224" y1="146.066" x2="600.231" y2="146.066"/>
	<rect id="rect18898" x="449.76" y="170.265" fill="#D81E05" width="92.926" height="25.04"/>
	<rect id="rect18900" x="450.009" y="214.892" fill="#D81E05" width="92.925" height="25.038"/>
	<rect id="rect18902" x="450.009" y="261.995" fill="#D81E05" width="93.1" height="25.037"/>
	<rect id="rect18910" x="448.087" y="148.325" fill="#FFFFFF" width="93.274" height="21.817"/>
	<rect id="rect19797" x="447.837" y="193.2" fill="#FFFFFF" width="93.273" height="21.816"/>
	<rect id="rect19799" x="448.338" y="240.054" fill="#FFFFFF" width="93.271" height="21.815"/>
	<rect id="rect19801" x="448.338" y="287.157" fill="#FFFFFF" width="93.271" height="28.145"/>
	<rect id="rect8223" x="585.997" y="257.648" fill="#FFCC00" width="14.027" height="8.417"/>
	<line id="path8226" fill="none" stroke="#FFCC00" x1="588.669" y1="258.799" x2="584.798" y2="255.807"/>
	<line id="path8228" fill="none" stroke="#FFCC00" x1="593.086" y1="257.948" x2="593" y2="254.348"/>
	<line id="path8230" fill="none" stroke="#FFCC00" x1="598.804" y1="258.739" x2="601.755" y2="255.79"/>
	<path id="path19890" fill="#FFCC00" d="M465.47,115.275L445.238,78.61l0.397-22.81l22.02,29.894l3.268-44.77l21.701,33.046
		l7.058-36.517l11.403,24.793c2.98-23.667,24.296-33.22,24.296-33.22V4.234L549.7,3.739l-0.115,25.403
		c0,0,16.645,5.525,23.48,32.871l12.972-26.297l5.786,41.722l20.863-37.164l5.782,45.752L636.702,56.4l3.083,24.936l-17.813,34.986
		c0,0-37.158-16.273-57.143-16.8l-49.088,0.176C515.742,99.702,477.565,105.809,465.47,115.275z"/>
	<path id="path20777" fill="none" stroke="#FFCC00" stroke-width="4" d="M465.08,114.778l-32.784-56.974
		c-2.728-2.479-0.176-18.932-0.176-18.932c-0.525-12.797,32.783-24.192,44.529-27.874c14.168-4.438,59.253-9.289,66.615-9.289
		c7.713,0,55.22,4.559,63.81,8.941c0,0,36.813,9.991,45.927,26.472c0,0,2.862,16.525,0.876,18.758l-31.554,60.83"/>
	<line id="path22553" fill="none" stroke="#FFCC00" stroke-width="4" x1="544.058" y1="0.762" x2="521.746" y2="-35.186"/>
	<line id="path22555" fill="none" stroke="#FFCC00" stroke-width="4" x1="519.019" y1="-18.822" x2="536.621" y2="-31.217"/>
	<path id="path24345" fill="#FFFFFF" d="M448.235,11.92c0.007,3.01-2.37,5.458-5.313,5.467c-2.941,0.008-5.333-2.426-5.341-5.436
		c0-0.01,0-0.021,0-0.029c-0.007-3.011,2.371-5.457,5.312-5.465s5.334,2.426,5.342,5.436C448.235,11.9,448.235,11.911,448.235,11.92
		z"/>
	<path id="path23454" fill="#FFFFFF" d="M428.032,62.989c0.007,3.011-2.373,5.458-5.314,5.465c-2.942,0.008-5.332-2.426-5.34-5.436
		c0-0.01,0-0.02,0-0.029c-0.011-3.01,2.371-5.458,5.312-5.467c2.94-0.008,5.334,2.427,5.343,5.437
		C428.032,62.968,428.032,62.98,428.032,62.989z"/>
	<path id="path24341" fill="#FFFFFF" d="M424.932,43.9c0.008,3.01-2.371,5.457-5.313,5.465c-2.94,0.008-5.333-2.427-5.34-5.438
		c0-0.008,0-0.019,0-0.028c-0.008-3.011,2.371-5.458,5.313-5.467c2.94-0.008,5.333,2.425,5.34,5.436
		C424.932,43.88,424.932,43.891,424.932,43.9z"/>
	<path id="path24343" fill="#FFFFFF" d="M430.882,24.81c0.008,3.011-2.371,5.458-5.313,5.466c-2.941,0.009-5.333-2.426-5.34-5.437
		c0-0.01,0-0.02,0-0.03c-0.008-3.01,2.371-5.457,5.313-5.465c2.938-0.009,5.333,2.424,5.34,5.436
		C430.882,24.792,430.882,24.802,430.882,24.81z"/>
	<path id="path24347" fill="#FFFFFF" d="M468.066,3.987c0.01,3.01-2.369,5.457-5.312,5.467c-2.941,0.007-5.331-2.427-5.342-5.438
		c0-0.012,0-0.02,0-0.029c-0.009-3.011,2.37-5.458,5.313-5.465c2.941-0.008,5.333,2.425,5.341,5.436
		C468.066,3.967,468.066,3.977,468.066,3.987z"/>
	<path id="path24349" fill="#FFFFFF" d="M488.398-1.966c0.007,3.009-2.373,5.458-5.314,5.466c-2.94,0.008-5.332-2.426-5.34-5.436
		c0-0.01,0-0.021,0-0.029c-0.008-3.01,2.371-5.457,5.313-5.465c2.939-0.008,5.333,2.427,5.342,5.436
		C488.398-1.983,488.398-1.973,488.398-1.966z"/>
	<path id="path24351" fill="#FFFFFF" d="M508.479-5.931c0.008,3.011-2.371,5.458-5.313,5.465c-2.942,0.008-5.333-2.425-5.34-5.437
		c0-0.009,0-0.02,0-0.029c-0.009-3.01,2.371-5.458,5.31-5.467c2.942-0.007,5.336,2.426,5.343,5.438
		C508.479-5.951,508.479-5.941,508.479-5.931z"/>
	<path id="path24353" fill="#FFFFFF" d="M528.561-8.658c0.007,3.01-2.372,5.457-5.314,5.465c-2.941,0.008-5.332-2.426-5.34-5.436
		c0-0.01,0-0.02,0-0.029c-0.008-3.011,2.371-5.458,5.312-5.466c2.94-0.008,5.335,2.426,5.343,5.436
		C528.561-8.679,528.561-8.669,528.561-8.658z"/>
	<path id="path24355" fill="#FFFFFF" d="M567.979-8.658c0.008,3.01-2.371,5.457-5.313,5.465c-2.941,0.008-5.333-2.426-5.341-5.436
		c0-0.01,0-0.02,0-0.029c-0.007-3.011,2.372-5.458,5.313-5.466c2.942-0.008,5.333,2.426,5.342,5.436
		C567.979-8.679,567.979-8.669,567.979-8.658z"/>
	<path id="path24357" fill="#FFFFFF" d="M587.315-6.18c0.008,3.01-2.371,5.458-5.313,5.466c-2.939,0.007-5.333-2.427-5.34-5.438
		c0-0.01,0-0.018,0-0.029c-0.009-3.012,2.37-5.458,5.313-5.466c2.941-0.008,5.333,2.425,5.34,5.436
		C587.315-6.196,587.315-6.189,587.315-6.18z"/>
	<path id="path24359" fill="#FFFFFF" d="M607.396-2.211c0.009,3.011-2.371,5.458-5.313,5.465c-2.94,0.009-5.332-2.425-5.34-5.435
		c0-0.011,0-0.021,0-0.029c-0.008-3.01,2.371-5.458,5.313-5.466c2.942-0.01,5.333,2.425,5.34,5.437
		C607.396-2.231,607.396-2.222,607.396-2.211z"/>
	<path id="path24361" fill="#FFFFFF" d="M627.974,4.231c0.007,3.011-2.372,5.46-5.313,5.468c-2.94,0.007-5.332-2.427-5.34-5.438
		c0-0.01,0-0.019,0-0.029c-0.011-3.01,2.37-5.457,5.31-5.465c2.942-0.007,5.336,2.426,5.344,5.438
		C627.974,4.216,627.974,4.224,627.974,4.231z"/>
	<path id="path24363" fill="#FFFFFF" d="M647.807,12.415c0.011,3.011-2.371,5.458-5.311,5.466c-2.941,0.007-5.333-2.426-5.343-5.438
		c0-0.009,0-0.02,0-0.029c-0.008-3.01,2.371-5.458,5.313-5.467c2.941-0.007,5.331,2.426,5.34,5.438
		C647.807,12.395,647.807,12.406,647.807,12.415z"/>
	<path id="path24365" fill="#FFFFFF" d="M664.912,24.313c0.008,3.009-2.371,5.458-5.313,5.466c-2.942,0.008-5.333-2.426-5.34-5.436
		c0-0.009,0-0.019,0-0.029c-0.008-3.01,2.371-5.457,5.313-5.466c2.942-0.008,5.333,2.427,5.34,5.437
		C664.912,24.296,664.912,24.305,664.912,24.313z"/>
	<path id="path24367" fill="#FFFFFF" d="M671.359,43.652c0.009,3.01-2.373,5.457-5.311,5.465c-2.943,0.009-5.336-2.426-5.344-5.436
		c0-0.01,0-0.02,0-0.029c-0.008-3.009,2.371-5.458,5.313-5.466c2.942-0.009,5.333,2.426,5.342,5.436
		C671.359,43.634,671.359,43.641,671.359,43.652z"/>
	<path id="path24369" fill="#FFFFFF" d="M667.64,63.237c0.007,3.011-2.371,5.458-5.313,5.465c-2.939,0.01-5.333-2.426-5.341-5.435
		c0-0.01,0-0.02,0-0.03c-0.007-3.011,2.37-5.457,5.313-5.464c2.941-0.01,5.333,2.424,5.341,5.435
		C667.64,63.219,667.64,63.228,667.64,63.237z"/>
	<path id="path16682" fill="#FFCC00" d="M440.781,116.111v180.861c-0.005,0.889,0.105,9.056,5.565,14.544
		c2.99,3.006,7.069,4.597,11.792,4.597h73.552l9.743,11.033l9.745-11.035h73.553c4.721,0,8.801-1.589,11.789-4.595
		c5.463-5.485,5.574-13.655,5.568-14.567c0,0.027,0-180.836,0-180.836H440.781V116.111z M633.751,296.973
		c-0.009,1.808-0.479,10.81-9.022,10.81h-77.291l-6.004,6.74l-6.004-6.74h-77.291c-8.545,0-9.018-9.002-9.024-10.806
		c0,0,0-144.148,0-172.54h184.639L633.751,296.973L633.751,296.973z"/>
	<path id="small_flag" fill="#FFCC00" d="M106.569,327.145l9.743-11.034h73.552c4.724,0,8.801-1.591,11.792-4.597
		c5.46-5.485,5.572-13.655,5.566-14.565c0,0.028,0-180.837,0-180.837H5.918v180.861c-0.005,0.889,0.106,9.056,5.565,14.544
		c2.991,3.006,7.069,4.597,11.792,4.597h73.553L106.569,327.145z"/>
	<path id="path2085" fill="#D81E05" d="M198.888,185.553v-61.118H14.25c0,9.403,0,33.662,0,61.118H198.888z"/>
	<path id="path2087" fill="#FFFFFF" d="M14.25,185.553c0,20.192,0,42.1,0,61.115h184.638v-61.115H14.25L14.25,185.553z"/>
	<path id="path2089" fill="#D81E05" d="M23.273,307.782c-8.545,0-9.017-9.002-9.023-10.806c0,0,0-21.918,0-50.311h184.638v50.307
		c-0.006,1.808-0.477,10.81-9.023,10.81h-77.29l-6.005,6.74l-6.006-6.74H23.273L23.273,307.782z"/>
	<path id="path2476" fill="#FFCC00" d="M107.819-1.955V-17.55h8.68v-2.501h-8.68v-11.083h-2.5v11.083H96.48v2.501h8.839v15.597
		c-1.578,2.941-4.194,8.84-7.146,10.78c-3.988,2.625-10.67,2.626-21.58,1.352C64.298,8.742,54.95,3.581,45.549,5.144
		c-7.971,1.325-13.924,11.057-13.924,11.057c0.272-0.1-35.992-4.344-39.314,27.438c-1.439,13.768,7.782,24.982,7.782,24.982
		s-8.189,0.157-9.625,5.688c-1.433,5.526,4.915,9.667,9.829,9.667s10.85-0.611,18.224,8.189
		c7.372,8.808,11.876,26.822,11.876,26.822s12.287-9.057,35.354-15.807c23.067-6.75,58.569-6.749,81.638,0.001
		c23.066,6.75,35.354,15.807,35.354,15.807s4.504-18.019,11.876-26.822c7.372-8.805,13.31-8.189,18.223-8.189
		c4.914,0,11.262-4.137,9.83-9.668c-1.433-5.526-9.627-5.688-9.627-5.688s9.223-11.214,7.784-24.982
		c-3.323-31.783-39.587-27.538-39.316-27.438c0,0-5.954-9.732-13.922-11.057c-9.403-1.563-18.75,3.597-31.045,5.035
		c-10.909,1.275-17.593,1.274-21.581-1.352C112.014,6.887,109.396,0.987,107.819-1.955z"/>
	<path id="path2481" fill="#D81E05" d="M39.923,48.663c-0.319,3.307-9.486,8.228-14.1,10.536C21.21,61.505,15.057,62.81,9.1,61.293
		C3.143,59.778-1.673,44.456,3.163,34.631c4.97-10.098,21.704-11.308,27.233-8.646C33.448,27.452,40.243,45.352,39.923,48.663z"/>
	<path id="path2483" fill="#D81E05" d="M101,34.585c-2.692,5.579-23.842,13.846-32.686,14.422
		c-8.844,0.578-14.747-4.716-14.747-4.716c-6.672-9.572-14.506-24.706-7.405-29.32c6.935-4.502,23.372,2.963,39.689,2.963
		c9.14,0,17.265-2.954,17.265-2.954S103.691,29.011,101,34.585z"/>
	<path id="path2485" fill="#D81E05" d="M110.022,14.977c0,0,8.124,2.954,17.264,2.954c16.316,0,32.754-7.465,39.688-2.963
		c7.102,4.614-0.732,19.751-7.406,29.32c0,0-5.902,5.294-14.747,4.717c-8.845-0.577-29.995-8.843-32.686-14.423
		C109.444,29.009,110.022,14.977,110.022,14.977z"/>
	<path id="path2487" fill="#D81E05" d="M182.741,25.984c5.528-2.663,22.262-1.456,27.232,8.646
		c4.834,9.826,0.018,25.147-5.936,26.662c-5.956,1.517-12.111,0.211-16.724-2.094c-4.614-2.309-13.78-7.229-14.1-10.536
		C172.893,45.355,179.688,27.452,182.741,25.984z"/>
	<path id="path30704" fill="#D81E05" d="M71.719,85.641c2.471,3.05,0.469,7.499-4.471,9.936c-4.942,2.437-10.948,1.938-13.418-1.117
		c-0.007-0.011-0.016-0.021-0.022-0.029c-2.471-3.052-0.471-7.502,4.471-9.939c4.939-2.436,10.947-1.939,13.417,1.119
		C71.704,85.618,71.711,85.629,71.719,85.641z"/>
	<path id="path30708" fill="#D81E05" d="M141.942,86.132c-2.471,3.05-0.471,7.5,4.471,9.936c4.94,2.437,10.947,1.938,13.416-1.115
		c0.009-0.011,0.016-0.022,0.024-0.029c2.47-3.05,0.469-7.499-4.471-9.936c-4.942-2.439-10.947-1.939-13.418,1.117
		C141.958,86.111,141.949,86.121,141.942,86.132z"/>
	<path id="path30710" fill="#D81E05" d="M14.189,79.861c-1.01,3.447-4.888,4.091-8.664,1.435c-3.778-2.659-6.022-7.61-5.014-11.059
		c0.003-0.013,0.007-0.024,0.01-0.032c1.008-3.447,4.887-4.09,8.663-1.433c3.777,2.657,6.022,7.61,5.015,11.059
		C14.196,79.843,14.193,79.854,14.189,79.861z"/>
	<path id="path30712" fill="#D81E05" d="M54.342,64.348c-1.995,3.076-5.891,2.703-8.707-0.836
		c-2.816-3.536-3.484-8.893-1.491-11.973c0.005-0.011,0.013-0.022,0.019-0.029c1.993-3.076,5.89-2.702,8.707,0.835
		c2.816,3.537,3.483,8.894,1.491,11.974C54.353,64.328,54.347,64.339,54.342,64.348z"/>
	<path id="path30718" fill="#D81E05" d="M165.606,64.842c-3.027,3.078-6.799,2.703-8.425-0.834
		c-1.628-3.536-0.495-8.894,2.53-11.974c0.01-0.01,0.02-0.019,0.029-0.029c3.027-3.078,6.8-2.703,8.426,0.835
		c1.628,3.536,0.493,8.896-2.53,11.974C165.626,64.821,165.616,64.833,165.606,64.842z"/>
	<path id="path30720" fill="#D81E05" d="M207.659,81.452c-3.173,3.079-6.928,2.703-8.388-0.833
		c-1.458-3.536-0.069-8.896,3.104-11.974c0.01-0.01,0.019-0.019,0.029-0.029c3.172-3.08,6.928-2.704,8.388,0.832
		c1.458,3.536,0.069,8.897-3.104,11.974C207.678,81.431,207.669,81.442,207.659,81.452z"/>
	<path id="path30722" fill="#D81E05" d="M30.957,80.322c-0.875,3.069-4.245,3.642-7.526,1.276c-3.282-2.364-5.233-6.771-4.358-9.84
		c0.003-0.01,0.005-0.021,0.008-0.029c0.876-3.069,4.246-3.641,7.527-1.276c3.281,2.365,5.232,6.771,4.357,9.842
		C30.962,80.306,30.959,80.317,30.957,80.322z"/>
	<path id="path30724" fill="#D81E05" d="M44.653,72.511c-0.875,3.071-4.246,3.642-7.526,1.278c-3.281-2.365-5.232-6.772-4.357-9.842
		c0.003-0.009,0.006-0.02,0.008-0.029c0.875-3.071,4.245-3.641,7.525-1.278c3.282,2.366,5.233,6.771,4.357,9.842
		C44.658,72.498,44.655,72.506,44.653,72.511z"/>
	<path id="path30726" fill="#D81E05" d="M74.919,67.463c-2.947,5.834-8.453,6.919-12.299,2.425
		c-3.846-4.493-4.575-12.875-1.628-18.709c0.009-0.02,0.018-0.033,0.028-0.054c2.947-5.835,8.455-6.919,12.3-2.428
		c3.847,4.494,4.575,12.875,1.629,18.711C74.938,67.421,74.929,67.441,74.919,67.463z"/>
	<path id="path30728" fill="#D81E05" d="M98.606,67.707c-1.7,5.836-6.974,6.921-11.781,2.427c-4.807-4.494-7.326-12.875-5.627-18.71
		c0.005-0.019,0.011-0.035,0.017-0.054c1.699-5.834,6.974-6.921,11.78-2.424c4.808,4.491,7.326,12.872,5.628,18.708
		C98.616,67.67,98.612,67.69,98.606,67.707z"/>
	<path id="path30730" fill="#D81E05" d="M127.404,70.15c-4.692,4.553-10.252,3.785-12.417-1.722
		c-2.167-5.505-0.12-13.66,4.571-18.211c0.016-0.017,0.029-0.028,0.043-0.042c4.693-4.552,10.252-3.785,12.417,1.723
		c2.168,5.505,0.121,13.661-4.571,18.21C127.433,70.127,127.419,70.138,127.404,70.15z"/>
	<path id="path30732" fill="#D81E05" d="M151.277,67.211c-2.947,5.835-8.453,6.922-12.3,2.428
		c-3.847-4.493-4.576-12.874-1.63-18.709c0.01-0.02,0.02-0.035,0.029-0.055c2.947-5.835,8.453-6.922,12.298-2.428
		c3.849,4.496,4.575,12.875,1.63,18.71C151.296,67.18,151.287,67.192,151.277,67.211z"/>
	<path id="path30734" fill="#D81E05" d="M171.284,76.651c-3.182,0.263-4.905-2.688-3.85-6.59c1.056-3.905,4.489-7.283,7.67-7.553
		c0.01,0,0.021-0.001,0.029-0.001c3.182-0.261,4.906,2.69,3.85,6.592c-1.055,3.904-4.489,7.284-7.671,7.55
		C171.305,76.65,171.295,76.651,171.284,76.651z"/>
	<path id="path30736" fill="#D81E05" d="M186.313,84.167c-3.111,0.715-5.236-1.965-4.745-5.982c0.492-4.017,3.413-7.844,6.523-8.559
		c0.009-0.002,0.02-0.005,0.029-0.007c3.111-0.713,5.237,1.965,4.744,5.982c-0.492,4.019-3.411,7.845-6.523,8.559
		C186.333,84.163,186.323,84.164,186.313,84.167z"/>
	<ellipse id="ellipse2142" fill="#D81E05" cx="106.569" cy="50.821" rx="6.662" ry="9.114"/>
	<ellipse id="ellipse2144" fill="#D81E05" cx="106.569" cy="85.003" rx="10.185" ry="6.853"/>
	<path id="path31635" fill="#FFFFFF" d="M231.977,63.434c0.007,3.011-2.371,5.458-5.312,5.468c-2.942,0.01-5.334-2.426-5.341-5.436
		c0-0.011,0-0.021,0-0.029c-0.009-3.009,2.37-5.457,5.312-5.465c2.941-0.009,5.333,2.425,5.341,5.435
		C231.977,63.42,231.977,63.425,231.977,63.434z"/>
	<path id="path31637" fill="#FFFFFF" d="M234.431,44.155c0.009,3.009-2.37,5.458-5.312,5.466c-2.941,0.008-5.332-2.426-5.341-5.436
		c0-0.009,0-0.021,0-0.029c-0.007-3.009,2.373-5.458,5.312-5.468c2.942-0.008,5.334,2.426,5.341,5.436
		C234.431,44.135,234.431,44.146,234.431,44.155z"/>
	<path id="path31639" fill="#FFFFFF" d="M228.12,25.223c0.007,3.011-2.371,5.458-5.312,5.467c-2.942,0.008-5.334-2.425-5.341-5.436
		c0-0.012,0-0.021,0-0.029c-0.008-3.009,2.371-5.46,5.312-5.468c2.941-0.008,5.334,2.426,5.341,5.438
		C228.12,25.202,228.12,25.211,228.12,25.223z"/>
	<path id="path31641" fill="#FFFFFF" d="M211.642,12.249c0.007,3.01-2.372,5.458-5.314,5.467c-2.941,0.01-5.332-2.427-5.34-5.437
		c0-0.009,0-0.019,0-0.029c-0.007-3.01,2.372-5.458,5.313-5.468c2.94-0.008,5.332,2.427,5.34,5.436
		C211.642,12.229,211.642,12.238,211.642,12.249z"/>
	<path id="path31643" fill="#FFFFFF" d="M192.358,7.692c0.008,3.01-2.37,5.457-5.312,5.467c-2.942,0.007-5.333-2.427-5.34-5.438
		c0-0.011,0-0.021,0-0.029c-0.007-3.011,2.371-5.46,5.311-5.469c2.942-0.007,5.334,2.426,5.341,5.438
		C192.358,7.673,192.358,7.684,192.358,7.692z"/>
	<path id="path31645" fill="#FFFFFF" d="M176.581-0.725c0.007,3.01-2.372,5.46-5.313,5.468c-2.942,0.008-5.333-2.426-5.34-5.436
		c0-0.01,0-0.021,0-0.029c-0.008-3.011,2.371-5.46,5.313-5.467c2.941-0.008,5.333,2.427,5.34,5.437
		C176.581-0.745,176.581-0.734,176.581-0.725z"/>
	<path id="path31647" fill="#FFFFFF" d="M156.596-1.076c0.007,3.011-2.37,5.461-5.312,5.468c-2.942,0.008-5.333-2.425-5.341-5.437
		c0-0.009,0-0.021,0-0.029c-0.007-3.01,2.371-5.458,5.312-5.467c2.942-0.008,5.334,2.426,5.341,5.438
		C156.596-1.097,156.596-1.086,156.596-1.076z"/>
	<path id="path31649" fill="#FFFFFF" d="M141.52,3.13c0.009,3.011-2.37,5.458-5.312,5.466c-2.941,0.011-5.332-2.425-5.341-5.435
		c0-0.011,0-0.021,0-0.029c-0.007-3.01,2.372-5.457,5.313-5.467c2.942-0.009,5.333,2.427,5.34,5.437
		C141.52,3.116,141.52,3.124,141.52,3.13z"/>
	<path id="path31651" fill="#FFFFFF" d="M125.042,3.13c0.008,3.011-2.37,5.458-5.312,5.466c-2.941,0.011-5.333-2.425-5.341-5.435
		c0-0.011,0-0.021,0-0.029c-0.006-3.01,2.371-5.457,5.313-5.467c2.942-0.009,5.333,2.427,5.34,5.437
		C125.042,3.116,125.042,3.124,125.042,3.13z"/>
	<path id="path31653" fill="#FFFFFF" d="M99.448,3.13c0.007,3.011-2.37,5.458-5.312,5.466c-2.94,0.011-5.333-2.425-5.34-5.435
		c0-0.011,0-0.021,0-0.029c-0.007-3.01,2.371-5.457,5.313-5.467c2.942-0.009,5.333,2.427,5.34,5.437
		C99.448,3.116,99.448,3.124,99.448,3.13z"/>
	<path id="path31655" fill="#FFFFFF" d="M83.32,3.13c0.007,3.011-2.372,5.459-5.314,5.466c-2.941,0.011-5.332-2.423-5.341-5.435
		c0-0.011,0-0.021,0-0.029c-0.007-3.01,2.372-5.457,5.313-5.467c2.942-0.009,5.333,2.427,5.342,5.438
		C83.32,3.116,83.32,3.124,83.32,3.13z"/>
	<path id="path31657" fill="#FFFFFF" d="M67.193-0.375c0.008,3.013-2.371,5.46-5.313,5.468c-2.942,0.008-5.333-2.427-5.34-5.437
		c0-0.009,0-0.02,0-0.029c-0.008-3.01,2.372-5.457,5.313-5.467c2.941-0.008,5.332,2.426,5.341,5.436
		C67.193-0.396,67.193-0.384,67.193-0.375z"/>
	<path id="path31659" fill="#FFFFFF" d="M48.61-0.375c0.008,3.013-2.37,5.46-5.312,5.468c-2.942,0.008-5.333-2.427-5.34-5.437
		c0-0.009,0-0.02,0-0.029c-0.01-3.01,2.371-5.457,5.312-5.467c2.942-0.008,5.334,2.426,5.341,5.436
		C48.61-0.396,48.61-0.384,48.61-0.375z"/>
	<path id="path31661" fill="#FFFFFF" d="M32.133,7.692c0.007,3.01-2.373,5.457-5.314,5.467c-2.941,0.007-5.332-2.427-5.34-5.438
		c0-0.011,0-0.021,0-0.029c-0.007-3.011,2.373-5.46,5.313-5.469c2.942-0.007,5.333,2.426,5.341,5.438
		C32.133,7.673,32.133,7.684,32.133,7.692z"/>
	<path id="path31663" fill="#FFFFFF" d="M12.498,11.899c0.008,3.01-2.37,5.458-5.312,5.467c-2.942,0.007-5.333-2.426-5.34-5.438
		c0-0.008,0-0.018,0-0.029C1.837,8.888,4.216,6.44,7.157,6.431c2.942-0.008,5.334,2.425,5.341,5.436
		C12.498,11.877,12.498,11.888,12.498,11.899z"/>
	<path id="path31665" fill="#FFFFFF" d="M-4.68,25.223c0.006,3.011-2.373,5.458-5.314,5.467c-2.942,0.008-5.332-2.425-5.34-5.436
		c0-0.012,0-0.021,0-0.029c-0.007-3.009,2.373-5.46,5.313-5.468c2.94-0.008,5.332,2.426,5.341,5.438
		C-4.68,25.202-4.68,25.211-4.68,25.223z"/>
	<path id="path31667" fill="#FFFFFF" d="M-10.642,43.803c0.007,3.011-2.372,5.458-5.314,5.467c-2.94,0.008-5.332-2.425-5.338-5.436
		c0-0.011,0-0.021,0-0.029c-0.009-3.01,2.371-5.458,5.312-5.468c2.94-0.006,5.333,2.427,5.34,5.438
		C-10.642,43.785-10.642,43.795-10.642,43.803z"/>
	<path id="path31669" fill="#FFFFFF" d="M-8.889,62.384c0.009,3.01-2.371,5.458-5.312,5.467c-2.942,0.009-5.333-2.427-5.34-5.437
		c0-0.009,0-0.021,0-0.029c-0.007-3.011,2.372-5.459,5.313-5.466c2.941-0.01,5.333,2.425,5.34,5.435
		C-8.889,62.368-8.889,62.378-8.889,62.384z"/>
	<path id="path31623" fill="#FFFFFF" d="M31.782,102.354c0.008,3.012-2.371,5.458-5.313,5.467c-2.941,0.01-5.332-2.426-5.34-5.436
		c0-0.01,0-0.02,0-0.03c-0.008-3.01,2.372-5.458,5.313-5.467c2.94-0.009,5.332,2.426,5.34,5.436
		C31.782,102.334,31.782,102.343,31.782,102.354z"/>
	<path id="path31625" fill="#FFFFFF" d="M32.483,64.838c0.008,3.011-2.371,5.459-5.312,5.468c-2.942,0.008-5.333-2.427-5.34-5.437
		c0-0.009,0-0.021,0-0.029c-0.007-3.01,2.372-5.459,5.313-5.467c2.941-0.008,5.333,2.426,5.34,5.436
		C32.483,64.817,32.483,64.826,32.483,64.838z"/>
	<path id="path31627" fill="#FFFFFF" d="M82.971,51.514c0.008,3.01-2.371,5.458-5.312,5.468c-2.941,0.009-5.333-2.425-5.341-5.438
		c0-0.011,0-0.02,0-0.029c-0.008-3.011,2.371-5.458,5.312-5.467c2.942-0.008,5.334,2.425,5.341,5.436
		C82.971,51.499,82.971,51.504,82.971,51.514z"/>
	<path id="path31629" fill="#FFFFFF" d="M141.522,51.163c0.007,3.01-2.371,5.458-5.313,5.468c-2.94,0.009-5.333-2.427-5.34-5.436
		c0-0.011,0-0.021,0-0.029c-0.008-3.011,2.371-5.458,5.313-5.465c2.942-0.011,5.333,2.425,5.341,5.435
		C141.522,51.149,141.522,51.156,141.522,51.163z"/>
	<path id="path31631" fill="#FFFFFF" d="M191.306,64.838c0.007,3.011-2.371,5.459-5.313,5.468c-2.941,0.008-5.333-2.427-5.341-5.437
		c0-0.009,0-0.021,0-0.029c-0.006-3.01,2.371-5.459,5.312-5.467c2.942-0.008,5.334,2.426,5.342,5.436
		C191.306,64.817,191.306,64.826,191.306,64.838z"/>
	<path id="path31633" fill="#FFFFFF" d="M192.007,103.057c0.009,3.01-2.371,5.457-5.312,5.467c-2.942,0.008-5.334-2.426-5.341-5.436
		c0-0.012,0-0.021,0-0.029c-0.008-3.01,2.373-5.46,5.313-5.468c2.941-0.01,5.333,2.426,5.341,5.436
		C192.007,103.035,192.007,103.046,192.007,103.057z"/>
</g>
</svg>
