<?xml version="1.0" encoding="utf-8"?>
<!-- Generator: Adobe Illustrator 16.0.3, SVG Export Plug-In . SVG Version: 6.00 Build 0)  -->
<!DOCTYPE svg PUBLIC "-//W3C//DTD SVG 1.1//EN" "http://www.w3.org/Graphics/SVG/1.1/DTD/svg11.dtd">
<svg version="1.1" xmlns="http://www.w3.org/2000/svg" xmlns:xlink="http://www.w3.org/1999/xlink" x="0px" y="0px"
	 width="685.167px" height="180px" viewBox="0 0 685.167 180" enable-background="new 0 0 685.167 180" xml:space="preserve">
<g id="Layer_2">
</g>
<g id="Layer_1">
	<g>
		<path fill="#333333" d="M42.95,47.625c-1.408,3.928-1.992,7.473-1.758,11.787c0.154,2.857,0.35,5.684,0.578,8.486
			c1.016,0.537,2.107,1.055,3.266,1.557c-0.043-2.5-0.186-5.08-0.434-7.74c-0.373-4.045-0.182-8.154,0.582-12.326
			c0.76-4.174,3.719-8.184,8.879-12.027C48.062,39.895,44.356,43.699,42.95,47.625z"/>
		<path fill="#333333" d="M36.103,64.111c0.316,0.275,0.65,0.547,0.994,0.816c-0.236-6.047,0.463-11.307,2.107-15.768
			c2.123-5.756,7.191-10.65,15.211-14.682c0.051-2.018,1.135-4.65,3.375-7.633l1.828,7.442c0.379,0.156,17.127,8.284,25.977,16.284
			h11.727c-1.039-8-4.299-15.88-9.775-19.759c-5.479-3.881-13.434-6.095-23.869-6.095c-8.506,0-15.199,0.935-20.08,3.071
			c-4.887,2.135-8.545,4.999-10.977,8.729c-2.432,3.734-3.648,7.665-3.648,11.862C28.972,54.769,31.347,59.988,36.103,64.111z"/>
		<path fill="#333333" d="M96.737,68.846c-1.879-3.115-4.732-5.791-8.555-8.031c-3.313-1.453-12.873-5.063-21.994-2.99
			c-1.75,0.398-3.055,0.83-4.303,0.83c-3,0-7.229-3.426-9.02-9.9c-0.551,0.672-0.703,2.1-0.703,2.498
			c0.07,3.234,0.852,5.662,2.338,7.279c1.49,1.617,3.119,2.756,4.889,3.412c1.771,0.656,1.588,0.363,4.836,1.02
			c3.248,0.654,10.238,3.506,13.434,11.832c3.48,10.998-2.404,15.297-7.447,16.979c-1.594,0.695-3.516,1.053-5.768,1.072
			c-0.139,0.008-0.213,0.008-0.213,0.008c-4.826,0-8.541-1.231-11.141-4.536c-1.596-2.045-2.654-3.745-3.174-7.745h-24.01
			c0.705,9,3.734,15.376,9.08,20.724c5.35,5.348,14.967,7.81,28.855,7.81c7.91,0,14.465-1.245,19.664-3.528
			s9.246-5.69,12.145-10.108c2.896-4.416,4.344-9.272,4.344-14.509C99.995,76.503,98.909,72.447,96.737,68.846z"/>
		<g>
			<path fill="#52A6CC" d="M547.429,137.662l8.446,2.555c-0.567,2.369-1.46,4.348-2.682,5.938c-1.219,1.588-2.735,2.787-4.544,3.597
				c-1.809,0.807-4.111,1.212-6.905,1.212c-3.392,0-6.163-0.494-8.312-1.478c-2.15-0.987-4.004-2.718-5.564-5.2
				c-1.561-2.481-2.342-5.657-2.342-9.529c0-5.16,1.371-9.127,4.118-11.898c2.743-2.773,6.629-4.159,11.653-4.159
				c3.93,0,7.017,0.795,9.268,2.384c2.248,1.589,3.92,4.03,5.014,7.322l-8.515,1.894c-0.297-0.951-0.611-1.646-0.936-2.087
				c-0.538-0.737-1.2-1.304-1.979-1.701c-0.78-0.397-1.653-0.597-2.619-0.597c-2.185,0-3.858,0.88-5.021,2.635
				c-0.879,1.306-1.32,3.354-1.32,6.145c0,3.457,0.525,5.828,1.574,7.111c1.051,1.282,2.525,1.923,4.428,1.923
				c1.845,0,3.237-0.517,4.182-1.553C546.315,141.138,547.002,139.636,547.429,137.662z"/>
			<path fill="#52A6CC" d="M558.472,134.853c0-5.095,1.42-9.059,4.258-11.897c2.836-2.836,6.789-4.256,11.855-4.256
				c5.191,0,9.192,1.393,12.002,4.181c2.809,2.789,4.213,6.696,4.213,11.718c0,3.647-0.612,6.638-1.838,8.971
				c-1.229,2.332-3.004,4.151-5.321,5.448c-2.321,1.299-5.212,1.947-8.675,1.947c-3.52,0-6.429-0.56-8.734-1.681
				s-4.176-2.895-5.61-5.322C559.19,141.535,558.472,138.5,558.472,134.853z M568.113,134.896c0,3.149,0.586,5.413,1.757,6.789
				c1.17,1.378,2.763,2.063,4.775,2.063c2.072,0,3.676-0.675,4.811-2.021c1.137-1.348,1.703-3.767,1.703-7.258
				c0-2.937-0.591-5.083-1.776-6.438c-1.184-1.355-2.792-2.033-4.82-2.033c-1.945,0-3.506,0.688-4.683,2.064
				C568.702,129.439,568.113,131.717,568.113,134.896z"/>
			<path fill="#52A6CC" d="M593.488,141.749h9.259v8.683h-9.259V141.749z"/>
			<path fill="#52A6CC" d="M513.396,141.749h9.258v8.683h-9.258V141.749z"/>
			<path fill="#52A6CC" d="M608.113,119.231h9.663v31.2h-9.663V119.231z"/>
			<path fill="#52A6CC" d="M623.04,119.231h9.641v23.518h15.049v7.683H623.04V119.231z"/>
		</g>
		<path fill="#333333" d="M112.419,24.795h25.639v43.662h28.016V24.795h25.754v82.973h-25.754V86.053h-28.016v21.715h-25.639V24.795
			z"/>
		<path fill="#333333" d="M254.554,76.129 M236.333,76.129 M226.72,107.768h-26.178l31.186-82.973h27.965l31.178,82.973h-26.848
			l-18.627-61.465L226.72,107.768z"/>
		<path fill="#333333" d="M299.132,24.795h25.639v43.662h28.018V24.795h25.752v82.973h-25.752V86.053h-28.018v21.715h-25.639V24.795
			z"/>
		<path fill="#333333" d="M395.292,24.795h33.719l13.002,50.486l12.91-50.486h33.699v82.973h-21V44.49l-16.178,63.277h-19.006
			L416.29,44.49v63.277h-20.998V24.795z"/>
		<path fill="#333333" d="M541.511,46.303l-18.676,61.465h-26.178l31.188-82.973h27.963l31.178,82.973h-26.848L541.511,46.303z"/>
		<path fill="#333333" d="M581.327,24.795h77.932v20.49h-26.145v62.482h-25.639V45.285h-26.148V24.795z"/>
		<rect x="527.729" y="72.572" fill="#333333" width="28" height="18"/>
		<rect x="231.729" y="72.572" fill="#333333" width="29" height="18"/>
	</g>
</g>
</svg>
