<?xml version="1.0" encoding="utf-8"?>
<!-- Generator: Adobe Illustrator 16.0.3, SVG Export Plug-In . SVG Version: 6.00 Build 0)  -->
<!DOCTYPE svg PUBLIC "-//W3C//DTD SVG 1.1//EN" "http://www.w3.org/Graphics/SVG/1.1/DTD/svg11.dtd">
<svg version="1.1" xmlns="http://www.w3.org/2000/svg" xmlns:xlink="http://www.w3.org/1999/xlink" x="0px" y="0px" width="256px"
	 height="256px" viewBox="0 0 256 256" enable-background="new 0 0 256 256" xml:space="preserve">
<g id="Layer_2">
</g>
<g id="Layer_1">
	<g>
		<g>
			<path fill="#FFFFFF" d="M80.811,82.945c-3.322,9.267-4.701,17.631-4.148,27.809c0.366,6.743,0.826,13.415,1.36,20.025
				c2.401,1.266,4.975,2.489,7.71,3.669c-0.103-5.896-0.44-11.98-1.023-18.26c-0.883-9.543-0.429-19.237,1.37-29.082
				c1.794-9.847,8.779-19.305,20.948-28.376C92.87,64.704,84.126,73.683,80.811,82.945z"/>
			<path fill="#FFFFFF" d="M64.653,121.842c0.746,0.652,1.532,1.293,2.345,1.929c-0.557-14.269,1.094-26.677,4.974-37.204
				c5.007-13.578,16.966-25.126,35.886-34.639c0.123-4.76,2.677-10.974,7.966-18.005l4.313,16.104
				C121.025,50.397,160.544,68,181.423,87h27.668c-2.453-20-10.142-36.015-23.064-45.173c-12.924-9.154-31.698-13.647-56.315-13.647
				c-20.065,0-35.863,2.563-47.379,7.601c-11.527,5.038-20.158,11.979-25.894,20.786c-5.738,8.806-8.609,18.171-8.609,28.073
				C47.829,99.709,53.436,112.116,64.653,121.842z"/>
			<path fill="#FFFFFF" d="M207.711,133.013c-4.431-7.347-11.163-13.663-20.18-18.949c-7.82-3.426-30.375-11.94-51.896-7.052
				c-4.127,0.938-7.205,1.953-10.152,1.953c-7.078,0-17.051-8.076-21.277-23.354c-1.302,1.586-1.66,4.952-1.66,5.891
				c0.17,7.634,2.008,13.362,5.518,17.176c3.517,3.816,7.357,6.501,11.536,8.049c4.18,1.549,3.743,0.857,11.404,2.407
				c7.669,1.545,24.157,8.271,31.696,27.918c8.211,25.947-5.671,36.091-17.569,40.059c-3.762,1.637-8.297,2.481-13.609,2.532
				c-0.324,0.014-0.499,0.015-0.499,0.015c-11.39,0-20.152-3.749-26.286-11.548C100.97,173.289,98.472,168,97.248,159H40.6
				c1.666,19,8.808,37.115,21.426,49.733c12.618,12.615,35.309,18.849,68.079,18.849c18.661,0,34.127-2.729,46.394-8.118
				c12.266-5.389,21.816-13.315,28.651-23.742c6.836-10.421,10.251-21.825,10.251-34.181
				C215.4,151.03,212.838,141.513,207.711,133.013z"/>
		</g>
	</g>
</g>
</svg>
