<?xml version="1.0" encoding="utf-8"?>
<!-- Generator: Adobe Illustrator 16.0.3, SVG Export Plug-In . SVG Version: 6.00 Build 0)  -->
<!DOCTYPE svg PUBLIC "-//W3C//DTD SVG 1.1//EN" "http://www.w3.org/Graphics/SVG/1.1/DTD/svg11.dtd">
<svg version="1.1" id="Layer_1" xmlns="http://www.w3.org/2000/svg" xmlns:xlink="http://www.w3.org/1999/xlink" x="0px" y="0px"
	 width="100px" height="100px" viewBox="0 0 100 100" enable-background="new 0 0 100 100" xml:space="preserve">
<path fill="#52A6CC" d="M35.302,47.258c-0.197,4.896-1.165,8.744-2.9,11.545c-1.738,2.802-4.376,4.852-7.915,6.148l4.326,6.281
	c5.964-2.417,10.355-6.016,13.175-10.793c2.03-3.479,3.047-9.171,3.047-17.075V28.767H26.06v18.491H35.302z M65.78,47.258
	c-0.197,4.896-1.165,8.744-2.9,11.545c-1.738,2.802-4.376,4.852-7.915,6.148l4.326,6.281c5.964-2.417,10.355-6.016,13.175-10.793
	c2.03-3.479,3.048-9.171,3.048-17.075V28.767H56.538v18.491H65.78z"/>
</svg>
